<svg id="Layer_1" data-name="Layer 1" xmlns="http://www.w3.org/2000/svg" viewBox="0 0 300 300"><defs><style>.cls-1{fill:#666;}</style></defs><title>Artboard 2 copy 6</title><path class="cls-1" d="M78.43,165.26A1.54,1.54,0,0,0,80,166.8H111.4a1.55,1.55,0,0,0,0-3.09H80A1.54,1.54,0,0,0,78.43,165.26Z"/><path class="cls-1" d="M73.19,163.71H59.34a1.55,1.55,0,0,0,0,3.09H73.19a1.55,1.55,0,1,0,0-3.09Z"/><path class="cls-1" d="M220,163.71H188.6a1.55,1.55,0,0,0,0,3.09H220a1.55,1.55,0,0,0,0-3.09Z"/><path class="cls-1" d="M240.66,163.71H226.81a1.55,1.55,0,1,0,0,3.09h13.85a1.55,1.55,0,0,0,0-3.09Z"/><path class="cls-1" d="M150,118.74a1.54,1.54,0,0,0,1.54-1.54v-5.46a1.54,1.54,0,1,0-3.08,0v5.46A1.54,1.54,0,0,0,150,118.74Z"/><path class="cls-1" d="M278.29,163.71h-.88v-5.19h.88a1.54,1.54,0,0,0,0-3.08H275.8l-14.67-14.39a1.81,1.81,0,0,0-.29-.19,1.48,1.48,0,0,0-.21-.13,1.36,1.36,0,0,0-.35-.07,1.55,1.55,0,0,0-.23,0,1.59,1.59,0,0,0-.3.06,1.4,1.4,0,0,0-.28.06c-.08,0-.15.1-.23.14a1.59,1.59,0,0,0-.27.18L245.56,154.2V140.29a1.52,1.52,0,0,0-.42-1.33l-10.33-10.12a1.59,1.59,0,0,0-.27-.18c-.08,0-.15-.11-.23-.15a1.7,1.7,0,0,0-.31-.06,1.28,1.28,0,0,0-.27,0,1.5,1.5,0,0,0-.29.06,1.35,1.35,0,0,0-.29,0c-.08,0-.15.1-.23.15a1.59,1.59,0,0,0-.27.18l-9.25,9.07-7.79-7.65a1.89,1.89,0,0,0-.28-.17,1.07,1.07,0,0,0-.22-.15,1.13,1.13,0,0,0-.32-.06,1.19,1.19,0,0,0-.26,0,1.45,1.45,0,0,0-.3,0,1.27,1.27,0,0,0-.28.06,1.2,1.2,0,0,0-.24.15,1.67,1.67,0,0,0-.26.17l-9,8.79a1.47,1.47,0,0,0-.42,1.31v14.21l-4.74-4.64v-32.8h1.15a1.55,1.55,0,0,0,0-3.09H172.84c-.18-.5-.39-1-.6-1.47h28.24a1.55,1.55,0,0,0,0-3.09h-3.37a10.77,10.77,0,0,0-21.42,0h-5.1a24.8,24.8,0,0,0-42,0h-4.24a10.77,10.77,0,0,0-21.42,0H99.52a1.55,1.55,0,0,0,0,3.09H126.9c-.22.48-.42,1-.61,1.47H99.52a1.55,1.55,0,0,0,0,3.09h1.15v32.8l-4.74,4.64V140.36a1.5,1.5,0,0,0-.42-1.31l-9-8.79a1.11,1.11,0,0,0-.27-.17,1.5,1.5,0,0,0-.23-.15,1.13,1.13,0,0,0-.32-.06,1.09,1.09,0,0,0-.26,0,1.47,1.47,0,0,0-.29,0,.77.77,0,0,0-.52.21,2.46,2.46,0,0,0-.27.17l-7.79,7.65-9.25-9.07a2.2,2.2,0,0,0-.28-.18c-.08,0-.14-.11-.22-.15a1.65,1.65,0,0,0-.32-.06,1.19,1.19,0,0,0-.26,0,1.59,1.59,0,0,0-.3.06,1.26,1.26,0,0,0-.28,0,2,2,0,0,0-.24.16.9.9,0,0,0-.26.17L54.86,139a1.52,1.52,0,0,0-.42,1.33V154.2L41,141.05a1.81,1.81,0,0,0-.29-.19,1.48,1.48,0,0,0-.21-.13,1.37,1.37,0,0,0-.34-.07,2,2,0,0,0-.24,0,1.59,1.59,0,0,0-.3.06,1.27,1.27,0,0,0-.28.06,1.14,1.14,0,0,0-.23.15,2.46,2.46,0,0,0-.27.17L24.2,155.44H21.71a1.54,1.54,0,1,0,0,3.08h.88v5.19h-.88a1.55,1.55,0,1,0,0,3.09h.88v51.73h0v3.08H277.76l-.35-3.08V166.8h.88a1.55,1.55,0,1,0,0-3.09ZM186.4,102.9a7.7,7.7,0,0,1,7.6,6.58H178.8A7.7,7.7,0,0,1,186.4,102.9ZM106,109.48a7.68,7.68,0,0,1,15.2,0ZM40,144.31,51.3,155.44H28.6ZM28.36,218.37H25.68V166.8h2.68Zm13.06,0h-10V166.8h10Zm13.06,0h-10V166.8h10Zm0-54.66H25.68v-5.19h28.8ZM66.27,132.1l6.61,6.49H59.65ZM75,218.37H57.56V158.52H75Zm0-62.93H57.53V141.67H75Zm139.53-21.91,5.23,5.13H209.29Zm-7.38,8.22H221.9v13.69H207.15Zm-6.61,13.69H190.18l5.18-5.08Zm-6.07-38.31h1.77V147l-.07-.05c-.08,0-.15-.11-.23-.15a1.59,1.59,0,0,0-.3-.06,1.51,1.51,0,0,0-.28-.05,1.26,1.26,0,0,0-.28.05,1.45,1.45,0,0,0-.3.06c-.08,0-.15.1-.23.15l-.08.05Zm-44.9-16.2a21.76,21.76,0,0,1,21.66,20.19H127.91A21.74,21.74,0,0,1,149.57,100.93Zm3.67,27.39,10.56,10.34H136.73l10.56-10.35h0l3-2.91,3,2.91Zm-49.48-11.19h1.77V147l-.07,0a2,2,0,0,0-.24-.16,1.45,1.45,0,0,0-.3-.06,1.26,1.26,0,0,0-.28-.05,1.37,1.37,0,0,0-.28.05,1.59,1.59,0,0,0-.3.06,2,2,0,0,0-.24.16l-.06,0Zm.88,33.23,5.18,5.08H99.46ZM85.47,133.53l5.24,5.13H80.24Zm-7.37,8.22H92.85v13.69H78.1Zm35.21,76.62H78.06V158.52h35.25Zm5.77,0h-2.69V158.52h2.69Zm12.07.16h-9v-60h9Zm0-63.09H116.39V141.75h14.76Zm-12.61-16.78,5.23-5.13,5.24,5.13Zm6.31-8.4a2.46,2.46,0,0,0-.27-.17.77.77,0,0,0-.54-.21,1.28,1.28,0,0,0-.27,0,1.47,1.47,0,0,0-.29,0,1.36,1.36,0,0,0-.29.06,1.5,1.5,0,0,0-.23.15,2.46,2.46,0,0,0-.27.17l-9,8.79a1.53,1.53,0,0,0-.42,1.29v14.19l-4.7-4.6v-32.8h16.76a24.9,24.9,0,0,0-.57,4h-4.63a1.55,1.55,0,0,0,0,3.09h26.9l-1.5,1.47h-25.4a1.55,1.55,0,0,0,0,3.09h22.25l-9.55,9.36Zm12.07,88.11h-2.69V158.52h2.69Zm23.08.16H140v-60h20Zm5.77-.16h-2.69V158.52h2.69Zm0-62.93H134.23V141.75h31.54Zm12.06,63.09h-9v-60h9Zm5.77-.16h-2.68V158.52h2.68Zm0-62.93H168.85V141.75H183.6ZM171,138.66l5.24-5.13,5.23,5.13Zm6.32-8.4a2.2,2.2,0,0,0-.28-.18c-.08,0-.14-.11-.22-.14a1.13,1.13,0,0,0-.32-.06,1.19,1.19,0,0,0-.26,0,1.57,1.57,0,0,0-.3,0,1.27,1.27,0,0,0-.28.06.91.91,0,0,0-.23.15,2.46,2.46,0,0,0-.27.17l-7.76,7.61-9.28-9.1h21.72a1.55,1.55,0,0,0,0-3.09H155l-1.5-1.47h26.37a1.55,1.55,0,0,0,0-3.09h-5.49a24.91,24.91,0,0,0-.58-4h17.63v32.8l-4.7,4.6V140.34a1.53,1.53,0,0,0-.42-1.29Zm44.63,88.11H186.69V158.52h35.25Zm11.79-86.27,6.62,6.49H227.12Zm8.71,86.27H225V158.52h17.41Zm0-62.93H225V141.67h17.48Zm17.58-11.13,11.35,11.13H248.7Zm-4.55,74.06h-10V166.8h10Zm13.05,0h-10V166.8h10Zm5.77,0h-2.68V166.8h2.68Zm0-54.66h-28.8v-5.19h28.8Z"/><path class="cls-1" d="M78.43,165.26A1.54,1.54,0,0,0,80,166.8H111.4a1.55,1.55,0,0,0,0-3.09H80A1.54,1.54,0,0,0,78.43,165.26Z"/><path class="cls-1" d="M73.19,163.71H59.34a1.55,1.55,0,0,0,0,3.09H73.19a1.55,1.55,0,1,0,0-3.09Z"/><path class="cls-1" d="M111.4,187.85H80a1.55,1.55,0,0,0,0,3.09H111.4a1.55,1.55,0,0,0,0-3.09Z"/><path class="cls-1" d="M73.19,187.85H59.34a1.55,1.55,0,0,0,0,3.09H73.19a1.55,1.55,0,1,0,0-3.09Z"/><path class="cls-1" d="M111.4,192H80A1.55,1.55,0,0,0,80,195H111.4a1.55,1.55,0,0,0,0-3.09Z"/><path class="cls-1" d="M73.19,192H59.34a1.55,1.55,0,0,0,0,3.09H73.19a1.55,1.55,0,1,0,0-3.09Z"/><path class="cls-1" d="M52,187.85H47a1.55,1.55,0,0,0,0,3.09H52a1.55,1.55,0,1,0,0-3.09Z"/><path class="cls-1" d="M52,192H47A1.55,1.55,0,0,0,47,195H52A1.55,1.55,0,1,0,52,192Z"/><path class="cls-1" d="M124.74,102.62a1.55,1.55,0,1,0,3.09,0,21.74,21.74,0,0,1,43.48,0,1.54,1.54,0,1,0,3.08,0,24.83,24.83,0,0,0-49.65,0Z"/><path class="cls-1" d="M55.09,133.35a1.55,1.55,0,0,0,3.09,0,16.88,16.88,0,1,1,33.75,0,1.55,1.55,0,0,0,3.09,0,20,20,0,0,0-39.93,0Z"/><path class="cls-1" d="M150,118.74a1.54,1.54,0,0,0,1.54-1.54v-5.46a1.54,1.54,0,1,0-3.08,0v5.46A1.54,1.54,0,0,0,150,118.74Z"/><path class="cls-1" d="M76.6,106.82v-5.47a1.55,1.55,0,0,0-3.09,0v5.47a1.55,1.55,0,0,0,3.09,0Z"/><path class="cls-1" d="M70.78,111a1.54,1.54,0,0,0,1.54,1.54h5.47a1.55,1.55,0,0,0,0-3.09H72.32A1.55,1.55,0,0,0,70.78,111Z"/><path class="cls-1" d="M115.14,93.54V89.61a1.54,1.54,0,1,0-3.08,0v3.93a1.54,1.54,0,1,0,3.08,0Z"/><path class="cls-1" d="M110.1,97.47A1.54,1.54,0,0,0,111.64,99h3.92a1.55,1.55,0,0,0,0-3.09h-3.92A1.54,1.54,0,0,0,110.1,97.47Z"/><path class="cls-1" d="M186.55,95.08a1.54,1.54,0,0,0,1.54-1.54V89.61a1.55,1.55,0,0,0-3.09,0v3.93A1.54,1.54,0,0,0,186.55,95.08Z"/><path class="cls-1" d="M184.59,99h3.92a1.55,1.55,0,0,0,0-3.09h-3.92a1.55,1.55,0,1,0,0,3.09Z"/><path class="cls-1" d="M151.54,91V85.51a1.54,1.54,0,1,0-3.08,0V91a1.54,1.54,0,1,0,3.08,0Z"/><path class="cls-1" d="M145.72,95.19a1.54,1.54,0,0,0,1.55,1.54h5.46a1.55,1.55,0,0,0,0-3.09h-5.46A1.55,1.55,0,0,0,145.72,95.19Z"/><path class="cls-1" d="M150,72.8a1.54,1.54,0,0,0,1.54-1.54V65.79a1.54,1.54,0,1,0-3.08,0v5.47A1.54,1.54,0,0,0,150,72.8Z"/><path class="cls-1" d="M147.27,77h5.46a1.55,1.55,0,0,0,0-3.09h-5.46a1.55,1.55,0,1,0,0,3.09Z"/><path class="cls-1" d="M220,163.71H188.6a1.55,1.55,0,0,0,0,3.09H220a1.55,1.55,0,0,0,0-3.09Z"/><path class="cls-1" d="M240.66,163.71H226.81a1.55,1.55,0,1,0,0,3.09h13.85a1.55,1.55,0,0,0,0-3.09Z"/><path class="cls-1" d="M220,187.85H188.6a1.55,1.55,0,0,0,0,3.09H220a1.55,1.55,0,0,0,0-3.09Z"/><path class="cls-1" d="M240.66,187.85H226.81a1.55,1.55,0,1,0,0,3.09h13.85a1.55,1.55,0,0,0,0-3.09Z"/><path class="cls-1" d="M220,192H188.6a1.55,1.55,0,0,0,0,3.09H220a1.55,1.55,0,0,0,0-3.09Z"/><path class="cls-1" d="M240.66,192H226.81a1.55,1.55,0,1,0,0,3.09h13.85a1.55,1.55,0,0,0,0-3.09Z"/><path class="cls-1" d="M253.05,187.85H248a1.55,1.55,0,1,0,0,3.09h5.06a1.55,1.55,0,0,0,0-3.09Z"/><path class="cls-1" d="M253.05,192H248a1.55,1.55,0,1,0,0,3.09h5.06a1.55,1.55,0,0,0,0-3.09Z"/><path class="cls-1" d="M206.52,134.89a1.54,1.54,0,0,0,1.54-1.54,16.88,16.88,0,1,1,33.76,0,1.55,1.55,0,0,0,3.09,0,20,20,0,0,0-39.93,0A1.54,1.54,0,0,0,206.52,134.89Z"/><path class="cls-1" d="M224.94,108.36a1.54,1.54,0,0,0,1.55-1.54v-5.47a1.55,1.55,0,0,0-3.09,0v5.47A1.54,1.54,0,0,0,224.94,108.36Z"/><path class="cls-1" d="M222.21,112.57h5.47a1.55,1.55,0,0,0,0-3.09h-5.47a1.55,1.55,0,0,0,0,3.09Z"/></svg>