<svg id="Layer_1" data-name="Layer 1" xmlns="http://www.w3.org/2000/svg" viewBox="0 0 300 300"><defs><style>.cls-1{fill:#666;}</style></defs><title>Artboard 2 copy 5</title><path class="cls-1" d="M91.23,174.06l0,.1a.29.29,0,0,0,0,.09v0l1.37,3.49v2.3a1,1,0,0,0,1,1H94v.39l-2.78,35.68,38.15-7.91-2.06-27.77v-.39h.31a1,1,0,0,0,1-1v-2.3l1.37-3.49s0,0,0,0,0-.06,0-.09a.36.36,0,0,0,0-.1.28.28,0,0,0,0-.09s0-.05,0-.08v-7.2s0-.07,0-.11,0-.07,0-.1v0l0-.06a.76.76,0,0,0,0-.11.59.59,0,0,1,0-.08l-.06-.08-.06-.08-.07-.07-.07-.06-.08-.06-.09,0-.09,0-.1,0-.09,0h-.31l-.1,0h0l-2,.54-1.32-.35-.52-11a1.36,1.36,0,0,0,0-.2,1.17,1.17,0,0,0,0-.27l-.12-2.47a.88.88,0,0,0,0-.17,1.09,1.09,0,0,0,0-.26l-.54-11.3s0-.06,0-.09a1.49,1.49,0,0,0,0-.21l-.13-2.64s0,0,0-.06a.88.88,0,0,0,0-.16l-.4-8.36.74-1.09a1.06,1.06,0,0,0,.17-.57v-1.4l1.91-4.66a1,1,0,0,0,.08-.38v-3.33a.43.43,0,0,1,0,0s0-.07,0-.11,0-.07,0-.1,0,0,0-.06,0,0,0,0a.31.31,0,0,0,0-.1.36.36,0,0,0,0-.09l-.06-.08-.06-.08-.08-.06s0,0-.07-.06l-.09-.06-.08,0-.09,0-.09,0-.1,0h-.31l-.11,0h0l-1.54.51-1-.35L121.2,93.89s0-.09,0-.13a1.26,1.26,0,0,0,0-.27l-.3-4.71.1-.06.52-.28a1,1,0,0,0,.5-.64h0a1,1,0,0,0,0-.24v-1.3l1-.45a1,1,0,0,0,.58-.92V80h0v0a.77.77,0,0,0,0-.15.74.74,0,0,0,0-.14s0,0,0,0h0a.89.89,0,0,0-.08-.17l-.09-.11s0,0,0,0l-.1-.09,0,0-.1-.06a.15.15,0,0,1-.07,0,.92.92,0,0,0-.4-.08h0l-.16,0-.14,0,0,0h0l-1.09.45L120,79.09a1.16,1.16,0,0,0-.55-.07l-.27-4.73a.77.77,0,0,0,0-.15,1.26,1.26,0,0,0,0-.27l-.61-10.52c.67-.7,2-2.31,2-3.88V56.65s0-.07,0-.11v-.09l0-.1,0-.1,0,0,0,0-.06-.09-.07-.07a.23.23,0,0,0-.07-.07l-.08-.07-.08,0-.08,0-.09,0-.1,0-.09,0h-.2l-.11,0h-.1l-.09,0-.11,0,0,0-.61.33-.6-.33-1.35-13.72a5.77,5.77,0,0,0,1.23-2.92V35.42a1,1,0,0,0-1-1h-5V29.81a1,1,0,1,0-2,0V34.4h-5a1,1,0,0,0-1,1v3.75a5.85,5.85,0,0,0,1.22,2.92l-1.35,13.72-.6.33-.6-.33,0,0-.1,0-.09,0H102l-.11,0h-.2l-.1,0-.09,0-.09,0-.09,0-.08,0-.08.07-.07.07-.06.07-.06.09,0,0s0,0,0,0l0,.1,0,.1,0,.09a.45.45,0,0,0,0,.11s0,0,0,.05v2.77c0,1.57,1.33,3.18,2,3.88l-.6,10.52a.84.84,0,0,0,0,.27s0,.1,0,.15L101.88,79a1.11,1.11,0,0,0-.54.07l-1.1.45-1.08-.45h0l-.06,0L99,79l-.16,0h0a.88.88,0,0,0-.39.08l-.06,0-.11.06-.06,0-.1.09,0,0-.09.11a.91.91,0,0,0-.09.17h0l0,0s0,.09,0,.14a.76.76,0,0,0,0,.15s0,0,0,0h0v4.85a1,1,0,0,0,.59.92l.94.45v1.27s0,0,0,0a1,1,0,0,0,0,.24h0a1,1,0,0,0,.5.64l.53.29.09,0-.3,4.71a1.26,1.26,0,0,0,0,.27.69.69,0,0,0,0,.13l-1.45,22.62-1,.35-1.53-.51H96l-.1,0h-.31l-.1,0-.09,0-.1,0-.08,0-.09.06-.07.06-.07.06-.07.08,0,.08a.41.41,0,0,0,0,.09.3.3,0,0,0,0,.1s0,0,0,0a.13.13,0,0,0,0,.06.36.36,0,0,0,0,.1s0,.07,0,.11v3.38a1.22,1.22,0,0,0,.07.38l1.91,4.66v1.4a1,1,0,0,0,.18.57l.74,1.09-.4,8.35a1.11,1.11,0,0,0,0,.17.35.35,0,0,0,0,.06L97.09,140a.75.75,0,0,0,0,.21.28.28,0,0,0,0,.09l-.54,11.29a.84.84,0,0,0,0,.27,1.09,1.09,0,0,0,0,.18l-.11,2.45a.9.9,0,0,0,0,.28.65.65,0,0,0,0,.2l-.53,11-1.31.35-2-.54h0l-.11,0h-.3l-.1,0-.09,0-.1,0-.08,0-.08.06-.08.06a.46.46,0,0,1-.07.07l-.06.08a.56.56,0,0,0,0,.08.56.56,0,0,1,0,.08s0,.08,0,.11,0,0,0,.06v0a.36.36,0,0,0,0,.1.41.41,0,0,0,0,.11v7.2s0,.05,0,.08S91.23,174,91.23,174.06ZM98.16,203h-3.7l.68-9.21h3.48Zm5.7,0h-3.65l.46-9.21h3.41Zm5.76,0h-3.71l.22-9.21h3.49Zm2,0v-9.21h3.49l.23,9.21Zm5.77,0-.23-9.21h3.41l.46,9.21Zm5.69,0-.46-9.21h3.49l.68,9.21Zm3.53-25.78a.94.94,0,0,0-.07.37V179h-.08a.85.85,0,0,0-.23,0H95a.85.85,0,0,0-.23,0h-.08v-1.46a1.16,1.16,0,0,0-.07-.37l-.71-1.79.35.09a1.14,1.14,0,0,0,.52,0l2-.54,2,.54a1.19,1.19,0,0,0,.53,0l2-.54,2,.54a1.09,1.09,0,0,0,.26,0,1.24,1.24,0,0,0,.27,0l2-.54,2,.54a1.19,1.19,0,0,0,.53,0l2-.54,2,.54a1.14,1.14,0,0,0,.52,0l2-.54,2,.54a1.19,1.19,0,0,0,.53,0l2-.54,2,.54a1.19,1.19,0,0,0,.53,0l2-.54,2,.54a1.19,1.19,0,0,0,.53,0l.34-.09Zm-21-140.75h9.9v.81h-9.9Zm9.16,10.66h-8.42l.44-4.45h7.54Zm-8.63,2.06h8.83l.66,6.73-.16-.09a1,1,0,0,0-1,0l-.6.33-.6-.33a1,1,0,0,0-1,0l-.61.33-.61-.33h0l-.12,0-.07,0-.11,0-.08,0h-.2l-.1,0-.1,0-.08,0-.1,0h0l-.61.33-.6-.33a1,1,0,0,0-1,0l-.61.33-.6-.33a1,1,0,0,0-1,0l-.16.09Zm-3.39,9.16a1,1,0,0,0,.58-.12l.6-.33.61.33a1,1,0,0,0,1,0l.6-.33.61.33a1,1,0,0,0,1,0l.61-.33.6.33a1,1,0,0,0,1,0l.61-.33.61.33a1,1,0,0,0,1,0l.61-.33.6.33a1,1,0,0,0,1,0l.6-.33.61.33a1,1,0,0,0,1,0l.61-.33.6.33a1,1,0,0,0,.5.13h.08v1.14A4.79,4.79,0,0,1,117,61.93H104.26a4.82,4.82,0,0,1-1.42-2.46Zm7.81,16.84h6.49l.23,4.08-.38-.16a1,1,0,0,0-.78,0l-1.1.45-1.1-.45a1,1,0,0,0-.78,0l-1.09.45-1.1-.45h0l-.17,0h-.39l-.18,0s0,0,0,0h0l-1.09.45-1.1-.45a1,1,0,0,0-.78,0l-1.1.45-1.09-.45a1,1,0,0,0-.78,0l-.39.16.24-4.08Zm-6.38-2L104.8,64h11.7l.52,9.14H104.27Zm-4.49,9.35v-.9l.07,0a1,1,0,0,0,.78,0l1.1-.45,1.09.45a1,1,0,0,0,.79,0l1.09-.45,1.09.45a1,1,0,0,0,.78,0l1.1-.45,1.1.45a1,1,0,0,0,.39.08,1,1,0,0,0,.39-.08l1.1-.45,1.09.45a1,1,0,0,0,.79,0l1.09-.45,1.1.45a1,1,0,0,0,.78,0l1.1-.45,1.09.45a1,1,0,0,0,.78,0l1.1-.45,1.09.45a1,1,0,0,0,.78,0l.07,0v.9l-1.8.86-.85-.41a1,1,0,0,0-.88,0l-.86.41-.85-.41a1,1,0,0,0-.88,0l-.85.41-.86-.41a1,1,0,0,0-.88,0l-.86.41-.86-.41,0,0-.1,0-.1,0h-.39l-.1,0-.1,0,0,0-.86.41-.86-.41a1,1,0,0,0-.87,0l-.86.41-.86-.41a1,1,0,0,0-.87,0l-.86.41-.86-.41a1,1,0,0,0-.87,0l-.86.41Zm16.7,23.5.46,10.66-.7.23-.91-.3L115.1,106Zm-1.42-2-.2-9.14H116l.39,9.14Zm1.31-16.28-.66-.36a1,1,0,0,0-1,0l-.66.36-.66-.36a1,1,0,0,0-1,0l-.67.36-.53-.28a1,1,0,0,0-1.23,0l-.53.28-.66-.36a1,1,0,0,0-1,0l-.66.36-.66-.36a1,1,0,0,0-1,0l-.66.36-.66-.36a1,1,0,0,0-1,0l-.66.36-1.32-.71V85.61a1.1,1.1,0,0,0,0-.18,1,1,0,0,0,.73,0l.85-.41.86.41a1.12,1.12,0,0,0,.88,0l.85-.41.86.41a1,1,0,0,0,.88,0l.85-.41.86.41a1,1,0,0,0,.88,0l.86-.41.86.41a1,1,0,0,0,.87,0l.86-.41.86.41a1.08,1.08,0,0,0,.44.09,1.11,1.11,0,0,0,.43-.09l.86-.41.86.41a1,1,0,0,0,.87,0l.86-.41.85.41a1,1,0,0,0,.74,0,1.13,1.13,0,0,0,0,.18v1.32h0l-1.32.71-.66-.36a1,1,0,0,0-1,0ZM113.05,106l.23,10.63-.77.26-.84-.28V106Zm-1.38-2V94.78h1.14l.2,9.14Zm-3.38,0,.2-9.14h1.13v9.14Zm1.33,2v10.61l-.84.28-.77-.26.24-10.63Zm-4.72-2,.39-9.14h1.14l-.19,9.14Zm1.29,2L106,116.56l-.91.3-.7-.23.45-10.66Zm-4.68-2,.59-9.14h1.13l-.38,9.14Zm1.25,2-.45,10.57-1,.32-.64-.21.68-10.68ZM119.2,94.78l.58,9.14h-1.33l-.39-9.14Zm.71,11.19.68,10.68-.63.21-1-.32L118.54,106Zm-22.43,16.2-.7-1.73v-1.7l.51.17a1,1,0,0,0,.64,0l1.54-.51,1.55.51a1,1,0,0,0,.64,0l1.54-.51,1.54.51a1.13,1.13,0,0,0,.32,0,1.19,1.19,0,0,0,.32,0l1.54-.51,1.54.51a1,1,0,0,0,.64,0l1.55-.51,1.54.51a1,1,0,0,0,.64,0l1.54-.51,1.55.51a1,1,0,0,0,.64,0l1.54-.51,1.54.51a1.13,1.13,0,0,0,.32,0,1.19,1.19,0,0,0,.32,0l1.54-.51,1.54.51a1,1,0,0,0,.64,0l.52-.17v1.7l-.71,1.73-1.67-.56a1,1,0,0,0-.64,0l-1.54.51-1.54-.51a1,1,0,0,0-.64,0l-1.54.51-1.55-.51a1,1,0,0,0-.64,0l-1.54.51-1.54-.51h0l-.1,0h-.37l-.12,0h0l-1.55.51-1.54-.51a1,1,0,0,0-.64,0l-1.54.51-1.54-.51a1,1,0,0,0-.64,0l-1.54.51-1.55-.51a1,1,0,0,0-.64,0Zm20.54,19,.3,9.59H116l-.15-9.59Zm-2.24-5-.11-6.76h2l.22,6.76Zm2.7,19.52.32,10.16-1.25.34-1.29-.35-.16-10.15Zm.29-28.33-.17,0-.09,0H102.79l-.1,0-.17,0H99.21l-.45-.67v-1.28a1,1,0,0,0-.08-.39l-.42-1,1.21-.4,1.55.51a1,1,0,0,0,.64,0l1.54-.51,1.54.51a1,1,0,0,0,.64,0l1.54-.51,1.54.51a1,1,0,0,0,.64,0l1.55-.51,1.54.51a1,1,0,0,0,.64,0l1.54-.51,1.55.51a1,1,0,0,0,.64,0l1.54-.51,1.54.51a1,1,0,0,0,.64,0l1.54-.51,1.21.4-.42,1a1,1,0,0,0-.08.39v1.28l-.44.67Zm-5,13.77.16,9.59h-2.3v-9.59Zm-2.14-5v-6.76h2l.1,6.76Zm2.38,19.52.16,10.16-1.26.34-1.28-.34V155.77Zm-6.73-5,.16-9.59h2.14v9.59Zm2.3,5v10.16l-1.28.34-1.26-.34.16-10.16Zm-2.06-19.52.11-6.76h2v6.76ZM103,150.8l.31-9.59h2.15l-.16,9.59Zm2.22,5L105,165.92l-1.29.35-1.25-.34.32-10.16Zm-1.75-19.52.21-6.76h2l-.11,6.76ZM98.63,150.8l.45-9.59h2.15l-.31,9.59Zm2.13,5-.32,10.15-1.3.35-1.24-.33.49-10.17Zm-1.44-19.52.32-6.76h2l-.21,6.76Zm22.33-6.76.32,6.76h-2.06l-.22-6.76Zm.56,11.72.46,9.59h-2.3l-.3-9.59Zm.7,14.56.48,10.17-1.24.33-1.3-.35-.32-10.15ZM93.26,168.05l1,.27a1.14,1.14,0,0,0,.52,0l2-.55,2,.55a1.14,1.14,0,0,0,.52,0l2-.55,2,.55a1.06,1.06,0,0,0,.53,0l2-.55,2,.55a1.19,1.19,0,0,0,.53,0l2-.55,2,.55a1.14,1.14,0,0,0,.52,0l2-.55,2,.55a1.09,1.09,0,0,0,.26,0,1.24,1.24,0,0,0,.27,0l2-.55,2,.55a1.19,1.19,0,0,0,.53,0l2-.55,2,.55a1.19,1.19,0,0,0,.53,0l1-.27v5.06l-1.27.34-2-.55a1.19,1.19,0,0,0-.53,0l-2,.55-2-.55a1.19,1.19,0,0,0-.53,0l-2,.55-2-.55a1.19,1.19,0,0,0-.53,0l-2,.55-2-.55h-.06l-.11,0h-.36l-2,.55-2-.55a1.19,1.19,0,0,0-.53,0l-2,.55-2-.55a1.14,1.14,0,0,0-.52,0l-2,.55-2-.55a1.14,1.14,0,0,0-.52,0l-2,.55-1.28-.34Z"/><path class="cls-1" d="M72.23,213a.7.7,0,0,0-.19.15l0,0a.39.39,0,0,0-.08.1l0,.06,0,0a.06.06,0,0,1,0,0,1.46,1.46,0,0,0-.07.19s0,0,0,0a1,1,0,0,0,0,.25s0,0,0,.06l0,.19a.14.14,0,0,1,0,.06.78.78,0,0,0,.12.22h0c.79,1.13,1.63,2.3,2.53,3.53,3.56,4.91,7.55,10.41,9.08,15.63H81.38a1,1,0,0,0-.72.3l-3.33,3.33a4.93,4.93,0,0,0,1.81.68l.34.06,2.33-2.32H227.23l2.32,2.32.35-.06a5,5,0,0,0,1.81-.68l-3.33-3.33a1,1,0,0,0-.72-.3H225.5c1.53-5.22,5.52-10.72,9.08-15.63.9-1.23,1.74-2.4,2.53-3.53h0a.57.57,0,0,0,.11-.22.14.14,0,0,0,0-.06.58.58,0,0,0,0-.19s0,0,0-.06a1.06,1.06,0,0,0,0-.25s0,0,0,0a1.72,1.72,0,0,0-.07-.21l0,0s0,0,0,0l0-.06-.09-.11,0,0a.9.9,0,0,0-.19-.15l-.05,0a.71.71,0,0,0-.18-.08l-.06,0a.77.77,0,0,0-.25,0h0a59.58,59.58,0,0,0-17.72,2.92,61.79,61.79,0,0,0-32.37-33.83h0a17.24,17.24,0,0,0-5.63-2,1,1,0,0,0-1,.87c-.07.41-.14.93-.21,1.54-9.63-10-13.89-12-14.63-12.32a20.89,20.89,0,0,0-4.58-2.63,1,1,0,0,0-1.09.23,1,1,0,0,0-.25,1.08,21.06,21.06,0,0,1,.71,2.91,28.16,28.16,0,0,0-4.21-4.8l-.05,0-.08-.06-.08-.05-.09,0-.06,0h-.06l-.07,0-.06,0h-.34l-.06,0-.07,0h-.06l-.06,0-.09,0-.08.05-.08.06,0,0a28.16,28.16,0,0,0-4.21,4.8,19.7,19.7,0,0,1,.71-2.91,1,1,0,0,0-.25-1.08,1,1,0,0,0-1.09-.23,20.89,20.89,0,0,0-4.58,2.63c-.74.31-5,2.35-14.63,12.32-.08-.61-.14-1.13-.21-1.54a1,1,0,0,0-1-.87,17.24,17.24,0,0,0-5.63,2h0a61.79,61.79,0,0,0-32.37,33.83,59.58,59.58,0,0,0-17.72-2.92h0a.73.73,0,0,0-.25,0l-.06,0-.18.07Zm138.29,20.61a44.71,44.71,0,0,0-25.44-11.14,48.25,48.25,0,0,0-9-.1,155.55,155.55,0,0,1,25-15.45c3.49,3.76,9.65,13,13.34,26.69Zm12.85,0h-1.72a51.39,51.39,0,0,1,8-12.27C227,225.27,224.45,229.46,223.37,233.58ZM233.14,215a52.52,52.52,0,0,0-13.74,18.61h-1.91A63.56,63.56,0,0,0,215.64,219,60.83,60.83,0,0,1,233.14,215Zm-51.76-32.83c2.65.79,10.23,4.2,17.7,11.63A55.34,55.34,0,0,1,215.23,229c-4.06-12.57-10-20.92-13.19-24.11a1,1,0,0,0-1.18-.19A160.71,160.71,0,0,0,178.49,218C178.73,211.61,180.49,189.07,181.38,182.14ZM179,185q-.11,1-.21,2.1a51.89,51.89,0,0,0-3.85-6.23C176.17,182.05,177.52,183.42,179,185Zm-.67,6a.57.57,0,0,0,.08.13c-.54,5.94-1.1,13.13-1.49,18.81a76.85,76.85,0,0,0-9.17-18.52l-.75-1.12c-.09-5.09-2.31-10.35-4.84-14.63-.09-.74-.42-3.29-.88-5.45C167.07,173.6,174.94,182.35,178.32,191Zm-22.78-21c2.59,3,7.57,9.76,9,16.84-1.56-2.11-3.15-4.1-4.66-5.81a21.06,21.06,0,0,0-4.35-4.09Zm0,9.5a70,70,0,0,1,9.58,11.69h0q.63.92,1.26,1.89c3.74,5.77,10,16.81,10,26.06a1.06,1.06,0,0,0,.05.31Q174,221.3,172,223a1.26,1.26,0,0,0-.31.25,94.25,94.25,0,0,0-11.08,10.37h-5ZM85.67,233.58c-1.08-4.12-3.58-8.31-6.3-12.27a51.69,51.69,0,0,1,8,12.27ZM124,222.44a44.71,44.71,0,0,0-25.44,11.14H94.6c3.69-13.71,9.85-22.93,13.34-26.69a154.84,154.84,0,0,1,25,15.45A48.25,48.25,0,0,0,124,222.44Zm29.53,11.14h-5a85.62,85.62,0,0,0-9.5-9.09c-1.78-1.49-3.91-3.19-6.4-5a.93.93,0,0,0,0-.29c0-9.25,6.27-20.29,10-26.06q.63-1,1.26-1.89h0a71,71,0,0,1,9.58-11.69Zm0-63.56V177a21.4,21.4,0,0,0-4.34,4.09c-1.51,1.71-3.1,3.7-4.66,5.81C145.93,179.78,150.9,173,153.49,170Zm-5.72.21c-.46,2.16-.79,4.7-.88,5.45-2.53,4.28-4.75,9.54-4.84,14.63-.25.37-.51.75-.75,1.12A76.85,76.85,0,0,0,132.13,210c-.39-5.68-.95-12.87-1.49-18.81a.54.54,0,0,0,.07-.13C134.1,182.35,142,173.6,147.77,170.23Zm-13.66,10.61a50.64,50.64,0,0,0-3.85,6.23c-.07-.73-.14-1.44-.21-2.1C131.52,183.42,132.87,182.05,134.11,180.84ZM110,193.77c7.46-7.43,15.05-10.84,17.7-11.63.89,6.92,2.65,29.43,2.89,35.86a162.46,162.46,0,0,0-22.37-13.28,1,1,0,0,0-1.18.19c-3.19,3.19-9.13,11.54-13.19,24.11A55.29,55.29,0,0,1,110,193.77ZM93.4,219a64.09,64.09,0,0,0-1.86,14.63H89.63A52.5,52.5,0,0,0,75.9,215,61,61,0,0,1,93.4,219Z"/><path class="cls-1" d="M226,236.9H83a1.06,1.06,0,0,0-.73.3l-1.16,1.17a6,6,0,0,1,1.78,1.11l.53-.53H225.59l.54.53a6,6,0,0,1,1.78-1.11l-1.17-1.17A1,1,0,0,0,226,236.9Z"/><path class="cls-1" d="M93.05,247l.89.5a7,7,0,0,0,6.16,0l.89-.5a4.88,4.88,0,0,1,4.16,0l.9.5a6.93,6.93,0,0,0,6.15,0l.89-.5a4.88,4.88,0,0,1,4.16,0l.9.5a6.93,6.93,0,0,0,6.15,0l.9-.5a4.88,4.88,0,0,1,4.16,0l.89.5a7,7,0,0,0,6.16,0l.89-.5a4.92,4.92,0,0,1,4.16,0l.89.51a7,7,0,0,0,6.16,0l.89-.5a4.88,4.88,0,0,1,4.16,0l.9.5a6.89,6.89,0,0,0,6.15,0l.89-.49a4.88,4.88,0,0,1,4.16,0l.9.5a6.93,6.93,0,0,0,6.15,0l.9-.5a4.88,4.88,0,0,1,4.16,0l.89.5a7,7,0,0,0,6.16,0l.89-.5a4.88,4.88,0,0,1,4.16,0l.89.5a7,7,0,0,0,6.16,0l.9-.51a4.9,4.9,0,0,1,4.15,0l.9.5a7,7,0,0,0,6.16,0l.89-.5a4.88,4.88,0,0,1,4.16,0l.89.5a7,7,0,0,0,6.16,0l.9-.51a4.21,4.21,0,0,1,1.94-.45,5,5,0,0,0,.11-1.34l0-.72a6.47,6.47,0,0,0-3,.72l-.9.51a5,5,0,0,1-4.16,0l-.89-.5a6.88,6.88,0,0,0-6.16,0l-.89.5a5,5,0,0,1-4.16,0l-.9-.5a6.89,6.89,0,0,0-6.15,0l-.9.51a4.93,4.93,0,0,1-4.15,0l-.9-.5a6.88,6.88,0,0,0-6.16,0l-.89.5a5,5,0,0,1-4.16,0l-.89-.5a6.88,6.88,0,0,0-6.16,0l-.9.5a4.93,4.93,0,0,1-4.15,0l-.9-.5a6.86,6.86,0,0,0-6.15,0l-.9.49a4.9,4.9,0,0,1-4.15,0l-.9-.5a6.86,6.86,0,0,0-6.15,0l-.9.5a5,5,0,0,1-4.16,0l-.89-.5a6.88,6.88,0,0,0-6.16,0l-.89.5a5,5,0,0,1-4.16,0l-.9-.5a6.86,6.86,0,0,0-6.15,0l-.9.5a4.93,4.93,0,0,1-4.15,0l-.9-.5a6.86,6.86,0,0,0-6.15,0l-.9.5a5,5,0,0,1-4.16,0l-.89-.5a6.88,6.88,0,0,0-6.16,0l-.89.5a5,5,0,0,1-4.16,0l-.9-.5a6.86,6.86,0,0,0-6.15,0l-.89.5a4.47,4.47,0,0,1-2,.45,4.91,4.91,0,0,0,.73,2A6.08,6.08,0,0,0,88,247.5l.9-.5A4.88,4.88,0,0,1,93.05,247Z"/><path class="cls-1" d="M215.08,250.46a7,7,0,0,0-6.16,0l-.89.5a4.88,4.88,0,0,1-4.16,0l-.9-.5a6.93,6.93,0,0,0-6.15,0l-.9.5a4.88,4.88,0,0,1-4.16,0l-.89-.5a7,7,0,0,0-6.16,0l-.89.5a4.88,4.88,0,0,1-4.16,0l-.89-.5a7,7,0,0,0-6.16,0l-.9.5a4.86,4.86,0,0,1-4.15,0l-.9-.5a6.93,6.93,0,0,0-6.15,0l-.9.5a4.86,4.86,0,0,1-4.15,0l-.9-.5a6.93,6.93,0,0,0-6.15,0l-.9.5a4.88,4.88,0,0,1-4.16,0l-.89-.5a7,7,0,0,0-6.16,0l-.89.5a4.88,4.88,0,0,1-4.16,0l-.9-.5a6.93,6.93,0,0,0-6.15,0l-.9.5a4.86,4.86,0,0,1-4.15,0l-.9-.5a6.93,6.93,0,0,0-6.15,0l-.9.5a4.88,4.88,0,0,1-4.16,0l-.89-.5a7,7,0,0,0-6.16,0l-.89.5a4.88,4.88,0,0,1-4.16,0l-.9-.5a7,7,0,0,0-5.65-.23,4.82,4.82,0,0,0,1.62.25h.91a6.19,6.19,0,0,1,5.16,2.93,6.84,6.84,0,0,0,4-.66l.89-.5a4.92,4.92,0,0,1,4.16,0l.89.5a7,7,0,0,0,6.16,0l.89-.5a4.92,4.92,0,0,1,4.16,0l.9.5a6.93,6.93,0,0,0,6.15,0l.9-.5a4.88,4.88,0,0,1,4.16,0l.89.5a6.93,6.93,0,0,0,6.15,0l.9-.5a4.88,4.88,0,0,1,4.16,0l.89.5a7,7,0,0,0,6.16,0l.89-.5a4.88,4.88,0,0,1,4.16,0l.9.5a6.93,6.93,0,0,0,6.15,0l.89-.5a4.91,4.91,0,0,1,4.17,0l.89.5a6.93,6.93,0,0,0,6.15,0l.9-.5a4.88,4.88,0,0,1,4.16,0l.89.5a7,7,0,0,0,6.16,0l.89-.5a4.88,4.88,0,0,1,4.16,0l.89.5a6.88,6.88,0,0,0,6.16,0l.9-.5a4.88,4.88,0,0,1,4.16,0l.89.5a6.93,6.93,0,0,0,6.15,0l.9-.5a4.94,4.94,0,0,1,4-.05,6.42,6.42,0,0,1,1.94-1.28Z"/><path class="cls-1" d="M212.26,255a6.54,6.54,0,0,0-3.34.71l-.89.5a5,5,0,0,1-4.16,0l-.9-.5a6.93,6.93,0,0,0-6.15,0l-.9.5a5,5,0,0,1-4.16,0l-.89-.5a7,7,0,0,0-6.16,0l-.89.5a5,5,0,0,1-4.16,0l-.89-.5a7,7,0,0,0-6.16,0l-.9.5a4.93,4.93,0,0,1-4.15,0l-.9-.5a6.93,6.93,0,0,0-6.15,0l-.9.5a4.93,4.93,0,0,1-4.15,0l-.9-.5a6.93,6.93,0,0,0-6.15,0l-.9.5a5,5,0,0,1-4.16,0l-.89-.5a7,7,0,0,0-6.16,0l-.89.5a5,5,0,0,1-4.16,0l-.9-.5a6.93,6.93,0,0,0-6.15,0l-.9.5a4.93,4.93,0,0,1-4.15,0l-.9-.5a6.93,6.93,0,0,0-6.15,0l-.9.5a5,5,0,0,1-4.16,0l-.89-.5a7,7,0,0,0-6.16,0l-.89.5a4.51,4.51,0,0,1-2,.46,5,5,0,0,0,.72,2,6.16,6.16,0,0,0,2.32-.68l.89-.5a4.88,4.88,0,0,1,4.16,0l.89.5a7,7,0,0,0,6.16,0l.89-.5a4.88,4.88,0,0,1,4.16,0l.9.5a6.93,6.93,0,0,0,6.15,0l.9-.5a4.88,4.88,0,0,1,4.16,0l.89.5a6.93,6.93,0,0,0,6.15,0l.9-.5a4.88,4.88,0,0,1,4.16,0l.89.5a7,7,0,0,0,6.16,0l.89-.5a4.88,4.88,0,0,1,4.16,0l.9.5a6.93,6.93,0,0,0,6.15,0l.89-.5a4.91,4.91,0,0,1,4.17,0l.89.5a6.93,6.93,0,0,0,6.15,0l.9-.5a4.88,4.88,0,0,1,4.16,0l.89.5a7,7,0,0,0,6.16,0l.89-.5a4.88,4.88,0,0,1,4.16,0l.89.5a7,7,0,0,0,6.16,0l.9-.5a4.88,4.88,0,0,1,4.16,0l.89.5a6.93,6.93,0,0,0,6.15,0l.9-.5a4.31,4.31,0,0,1,2-.46c0-.14.05-.28.07-.42l.12-.9A4.61,4.61,0,0,1,212.26,255Z"/></svg>