<svg id="Layer_1" data-name="Layer 1" xmlns="http://www.w3.org/2000/svg" viewBox="0 0 300 300"><defs><style>.cls-1{fill:#666;}</style></defs><title>Artboard 2 copy 2</title><path class="cls-1" d="M134.05,222.23a5.93,5.93,0,1,0-5.93-5.93A5.93,5.93,0,0,0,134.05,222.23Zm0-8.89a3,3,0,1,1-3,3A3,3,0,0,1,134.05,213.34Z"/><path class="cls-1" d="M182,222.23A5.93,5.93,0,1,0,176,216.3,5.94,5.94,0,0,0,182,222.23Zm0-8.89a3,3,0,1,1-3,3A3,3,0,0,1,182,213.34Z"/><path class="cls-1" d="M113.87,221.49h4.31a1.49,1.49,0,0,0,1-.44,1.53,1.53,0,0,0,.43-1.05l0-6.52a3.61,3.61,0,1,0-7.22,0l0,6.53a1.49,1.49,0,0,0,1.48,1.49Zm1.5-8a.65.65,0,1,1,1.3,0l0,5h-1.33Z"/><path class="cls-1" d="M113.87,238h4.31a1.49,1.49,0,0,0,1-.44,1.53,1.53,0,0,0,.43-1l0-6.52a3.61,3.61,0,1,0-7.22,0l0,6.53a1.49,1.49,0,0,0,1.48,1.49Zm1.5-8a.65.65,0,1,1,1.3,0l0,5h-1.33Z"/><path class="cls-1" d="M113.87,254.41h4.31a1.49,1.49,0,0,0,1-.44,1.51,1.51,0,0,0,.43-1.05l0-6.52a3.61,3.61,0,1,0-7.22,0l0,6.53a1.47,1.47,0,0,0,.43,1.05A1.49,1.49,0,0,0,113.87,254.41Zm1.5-8a.65.65,0,1,1,1.3,0l0,5h-1.33Z"/><path class="cls-1" d="M113.87,270.87h4.31a1.49,1.49,0,0,0,1-.44,1.51,1.51,0,0,0,.43-1.05l0-6.52a3.61,3.61,0,0,0-7.22,0l0,6.53a1.47,1.47,0,0,0,.43,1.05A1.49,1.49,0,0,0,113.87,270.87Zm1.5-8a.65.65,0,0,1,1.3,0l0,5.05h-1.33Z"/><path class="cls-1" d="M113.83,199.67H243.44a1.48,1.48,0,0,0,0-3h-2.6V185.27h2.6a1.48,1.48,0,1,0,0-3h-2.6V170.87h2.6a1.49,1.49,0,0,0,0-3h-8.66V141.24a1.49,1.49,0,0,0-1.48-1.49H212.79a1.49,1.49,0,0,0-1.49,1.49v4.56H104.7v-4.56a1.49,1.49,0,0,0-1.49-1.49H82.7a1.49,1.49,0,0,0-1.48,1.49V167.9H72.56a1.49,1.49,0,0,0,0,3h2.6v11.44h-2.6a1.48,1.48,0,1,0,0,3h2.6v11.44h-2.6a1.48,1.48,0,0,0,0,3h41.27Zm6.48-3h-5V186c0-.6,1.23-1.63,2.5-2.32,1.28.69,2.5,1.72,2.5,2.32Zm13.4,0h-5V186c0-.6,1.22-1.63,2.5-2.32,1.28.69,2.5,1.72,2.5,2.32Zm13.39,0h-5V186c0-.6,1.23-1.63,2.5-2.32,1.28.69,2.5,1.72,2.5,2.32Zm13.4,0h-5V186c0-.6,1.22-1.63,2.5-2.32,1.28.69,2.5,1.72,2.5,2.32Zm13.4,0h-5V186c0-.6,1.22-1.63,2.5-2.32,1.27.69,2.5,1.72,2.5,2.32Zm13.39,0h-5V186c0-.6,1.22-1.63,2.5-2.32,1.28.69,2.5,1.72,2.5,2.32Zm13.4,0h-5V186c0-.6,1.22-1.63,2.5-2.32,1.27.69,2.5,1.72,2.5,2.32Zm4.55,0h-1.59V186c0-3-4.05-5-4.86-5.33a1.5,1.5,0,0,0-1.21,0c-.81.36-4.86,2.33-4.86,5.33v10.75h-2.47V186c0-3-4-5-4.85-5.33a1.5,1.5,0,0,0-1.21,0c-.81.36-4.86,2.33-4.86,5.33v10.75h-2.47V186c0-3-4.05-5-4.86-5.33a1.5,1.5,0,0,0-1.21,0c-.81.36-4.86,2.33-4.86,5.33v10.75h-2.47V186c0-3-4-5-4.86-5.33a1.48,1.48,0,0,0-1.2,0c-.82.36-4.86,2.33-4.86,5.33v10.75h-2.47V186c0-3-4-5-4.86-5.33a1.5,1.5,0,0,0-1.21,0c-.81.36-4.86,2.33-4.86,5.33v10.75h-2.47V186c0-3-4-5-4.86-5.33a1.5,1.5,0,0,0-1.21,0c-.81.36-4.85,2.33-4.85,5.33v10.75h-2.47V186c0-3-4-5-4.86-5.33a1.5,1.5,0,0,0-1.21,0c-.81.36-4.86,2.33-4.86,5.33v10.75h-1.59V170.87h94.48Zm32.64,0H208.21V185.27h29.67Zm-23.61-49.42v-4.57h17.55V167.9H214.27Zm-1.48,23.58h25.09v11.44H208.21V170.87ZM104.7,148.77H211.3V167.9H104.7Zm-20.52-6.05h17.55V167.9H84.18Zm23.61,54H78.12V185.27h29.67Zm0-14.4H78.12V170.87h29.67Z"/><path class="cls-1" d="M101.82,117.78V95.31a1.48,1.48,0,0,0-1.48-1.48H85.57a1.48,1.48,0,0,0-1.48,1.48v22.47H73.23a1.48,1.48,0,0,0,0,3h1.93v12.59H73.23a1.49,1.49,0,0,0,0,3h39.46a1.49,1.49,0,0,0,0-3h-1.93V120.74h1.93a1.48,1.48,0,0,0,0-3H101.82Zm-14.77-21H98.86v21H87.05Zm20.74,36.54H78.12V120.74h29.67Z"/><path class="cls-1" d="M81.6,173a1.48,1.48,0,0,0-1.48,1.48v4.44a1.48,1.48,0,0,0,3,0v-4.44A1.48,1.48,0,0,0,81.6,173Z"/><path class="cls-1" d="M87.28,173a1.48,1.48,0,0,0-1.48,1.48v4.44a1.48,1.48,0,0,0,3,0v-4.44A1.48,1.48,0,0,0,87.28,173Z"/><path class="cls-1" d="M93,173a1.48,1.48,0,0,0-1.48,1.48v4.44a1.48,1.48,0,0,0,3,0v-4.44A1.48,1.48,0,0,0,93,173Z"/><path class="cls-1" d="M98.64,173a1.49,1.49,0,0,0-1.49,1.48v4.44a1.49,1.49,0,0,0,3,0v-4.44A1.48,1.48,0,0,0,98.64,173Z"/><path class="cls-1" d="M102.83,178.89a1.49,1.49,0,0,0,3,0v-4.44a1.49,1.49,0,0,0-3,0Z"/><path class="cls-1" d="M81.6,123.33a1.49,1.49,0,0,0-1.48,1.49v4.44a1.48,1.48,0,1,0,3,0v-4.44A1.49,1.49,0,0,0,81.6,123.33Z"/><path class="cls-1" d="M87.28,123.33a1.49,1.49,0,0,0-1.48,1.49v4.44a1.48,1.48,0,0,0,3,0v-4.44A1.49,1.49,0,0,0,87.28,123.33Z"/><path class="cls-1" d="M93,123.33a1.49,1.49,0,0,0-1.48,1.49v4.44a1.48,1.48,0,1,0,3,0v-4.44A1.49,1.49,0,0,0,93,123.33Z"/><path class="cls-1" d="M98.64,123.33a1.49,1.49,0,0,0-1.49,1.49v4.44a1.49,1.49,0,0,0,3,0v-4.44A1.49,1.49,0,0,0,98.64,123.33Z"/><path class="cls-1" d="M87.28,79.5A1.49,1.49,0,0,0,85.79,81v4.44a1.49,1.49,0,0,0,3,0V81A1.49,1.49,0,0,0,87.28,79.5Z"/><path class="cls-1" d="M93,79.5A1.49,1.49,0,0,0,91.47,81v4.44a1.49,1.49,0,0,0,3,0V81A1.49,1.49,0,0,0,93,79.5Z"/><path class="cls-1" d="M98.63,79.5A1.49,1.49,0,0,0,97.15,81v4.44a1.49,1.49,0,0,0,3,0V81A1.49,1.49,0,0,0,98.63,79.5Z"/><path class="cls-1" d="M104.32,130.74a1.48,1.48,0,0,0,1.48-1.48v-4.44a1.49,1.49,0,1,0-3,0v4.44A1.49,1.49,0,0,0,104.32,130.74Z"/><path class="cls-1" d="M81.6,195.07a1.48,1.48,0,0,0,1.48-1.48v-4.44a1.48,1.48,0,1,0-3,0v4.44A1.48,1.48,0,0,0,81.6,195.07Z"/><path class="cls-1" d="M87.28,195.07a1.48,1.48,0,0,0,1.48-1.48v-4.44a1.48,1.48,0,1,0-3,0v4.44A1.48,1.48,0,0,0,87.28,195.07Z"/><path class="cls-1" d="M93,195.07a1.48,1.48,0,0,0,1.48-1.48v-4.44a1.48,1.48,0,1,0-3,0v4.44A1.48,1.48,0,0,0,93,195.07Z"/><path class="cls-1" d="M98.64,195.07a1.48,1.48,0,0,0,1.48-1.48v-4.44a1.49,1.49,0,0,0-3,0v4.44A1.49,1.49,0,0,0,98.64,195.07Z"/><path class="cls-1" d="M104.32,195.07a1.48,1.48,0,0,0,1.48-1.48v-4.44a1.49,1.49,0,0,0-3,0v4.44A1.49,1.49,0,0,0,104.32,195.07Z"/><path class="cls-1" d="M78,87.28a1.49,1.49,0,0,0,0,3h29.91a1.49,1.49,0,0,0,0-3H105.8V79.13h2.11a1.48,1.48,0,0,0,0-3h-7.79V66.74A9.16,9.16,0,0,0,105.8,58c0-8.49-11.84-12.82-12.34-13l-.07,0-.15,0-.14,0h-.29l-.14,0-.15,0h-.06c-.51.18-12.32,4.51-12.34,13a9.16,9.16,0,0,0,5.67,8.72v9.43H78a1.48,1.48,0,0,0,0,3h2.12v8.15ZM83.08,58c0-5.59,7.81-9.17,9.88-10,2.06.85,9.86,4.43,9.87,10a6.21,6.21,0,0,1-4.4,6.17h-11A6.21,6.21,0,0,1,83.08,58Zm14.07,9.13v9H88.76v-9Zm-14.07,12h19.75v8.15H83.08Z"/><path class="cls-1" d="M93,41a1.49,1.49,0,0,0,1.49-1.48V31.73a1.49,1.49,0,1,0-3,0V39.5A1.48,1.48,0,0,0,93,41Z"/><path class="cls-1" d="M117.2,158.34a1.49,1.49,0,0,0-1.48-1.49h-6.87a1.49,1.49,0,0,0,0,3h6.87A1.49,1.49,0,0,0,117.2,158.34Z"/><path class="cls-1" d="M120.28,159.82h6.86a1.49,1.49,0,1,0,0-3h-6.86a1.49,1.49,0,0,0,0,3Z"/><path class="cls-1" d="M131.71,159.82h6.86a1.49,1.49,0,0,0,0-3h-6.86a1.49,1.49,0,0,0,0,3Z"/><path class="cls-1" d="M143.14,159.82H150a1.49,1.49,0,0,0,0-3h-6.86a1.49,1.49,0,0,0,0,3Z"/><path class="cls-1" d="M154.57,159.82h6.86a1.49,1.49,0,0,0,0-3h-6.86a1.49,1.49,0,0,0,0,3Z"/><path class="cls-1" d="M166,159.82h6.86a1.49,1.49,0,0,0,0-3H166a1.49,1.49,0,0,0,0,3Z"/><path class="cls-1" d="M177.43,159.82h6.86a1.49,1.49,0,0,0,0-3h-6.86a1.49,1.49,0,0,0,0,3Z"/><path class="cls-1" d="M188.86,159.82h6.86a1.49,1.49,0,0,0,0-3h-6.86a1.49,1.49,0,1,0,0,3Z"/><path class="cls-1" d="M200.28,159.82h6.87a1.49,1.49,0,0,0,0-3h-6.87a1.49,1.49,0,0,0,0,3Z"/><path class="cls-1" d="M234.05,203.13H82a1.48,1.48,0,0,0-1.48,1.48v73.66A1.49,1.49,0,0,0,82,279.76h152.1a1.49,1.49,0,0,0,1.48-1.49V204.61A1.48,1.48,0,0,0,234.05,203.13ZM89.19,276.79H83.43v-70.7h5.76Zm9.88,0H92.15v-70.7h6.92Zm8.72,0H102v-70.7h5.76Zm13.5,0H110.76v-70.7h10.53Zm63.62,0H131.09V241.44c0-9.73,8.87-13,16.71-15.86,4.14-1.52,8.13-3,10.2-5.38,2.07,2.4,6.06,3.86,10.2,5.38,7.84,2.88,16.71,6.13,16.71,15.86Zm6.84,0h-3.87V241.44c0-11.79-10.35-15.59-18.66-18.64-5.23-1.92-9.74-3.58-9.74-6.5a1.48,1.48,0,1,0-3,0c0,2.92-4.51,4.58-9.74,6.5-8.31,3-18.66,6.85-18.66,18.64v35.35h-3.87v-70.7h67.5Zm13.49,0H194.71v-70.7h10.53Zm8.73,0h-5.76v-70.7H214Zm9.88,0h-6.92v-70.7h6.92Zm8.72,0h-5.76v-70.7h5.76Z"/><path class="cls-1" d="M197.82,221.49h4.33a1.49,1.49,0,0,0,1.48-1.49,1,1,0,0,0,0-.24l0-6.28a3.61,3.61,0,1,0-7.22,0l0,6.53a1.53,1.53,0,0,0,.43,1.05A1.49,1.49,0,0,0,197.82,221.49Zm1.51-8a.65.65,0,1,1,1.3,0v5h-1.33Z"/><path class="cls-1" d="M197.82,238h4.33a1.48,1.48,0,0,0,1.48-1.48,1,1,0,0,0,0-.25l0-6.28a3.61,3.61,0,1,0-7.22,0l0,6.53a1.53,1.53,0,0,0,.43,1A1.49,1.49,0,0,0,197.82,238Zm1.51-8a.65.65,0,0,1,1.3,0v5h-1.33Z"/><path class="cls-1" d="M197.82,254.41h4.33a1.48,1.48,0,0,0,1.48-1.48,1,1,0,0,0,0-.25l0-6.28a3.61,3.61,0,1,0-7.22,0l0,6.53a1.51,1.51,0,0,0,.43,1.05A1.49,1.49,0,0,0,197.82,254.41Zm1.51-8a.65.65,0,0,1,1.3,0v5h-1.33Z"/><path class="cls-1" d="M197.82,270.87h4.33a1.48,1.48,0,0,0,1.48-1.48,1,1,0,0,0,0-.25l0-6.28a3.61,3.61,0,0,0-7.22,0l0,6.53a1.51,1.51,0,0,0,.43,1.05A1.49,1.49,0,0,0,197.82,270.87Zm1.51-8a.65.65,0,0,1,1.3,0v5.05h-1.33Z"/><path class="cls-1" d="M203.31,133.33a1.49,1.49,0,0,0,0,3h39.46a1.49,1.49,0,0,0,0-3h-1.93V120.74h1.93a1.48,1.48,0,0,0,0-3H231.91V95.31a1.48,1.48,0,0,0-1.48-1.48H215.66a1.48,1.48,0,0,0-1.48,1.48v22.47H203.31a1.48,1.48,0,0,0,0,3h1.93v12.59Zm13.83-36.54H229v21H217.14Zm-8.93,23.95h29.67v12.59H208.21Z"/><path class="cls-1" d="M234.4,180.37a1.48,1.48,0,0,0,1.48-1.48v-4.44a1.48,1.48,0,0,0-3,0v4.44A1.48,1.48,0,0,0,234.4,180.37Z"/><path class="cls-1" d="M228.72,180.37a1.48,1.48,0,0,0,1.48-1.48v-4.44a1.48,1.48,0,1,0-3,0v4.44A1.48,1.48,0,0,0,228.72,180.37Z"/><path class="cls-1" d="M223,180.37a1.48,1.48,0,0,0,1.48-1.48v-4.44a1.48,1.48,0,0,0-3,0v4.44A1.48,1.48,0,0,0,223,180.37Z"/><path class="cls-1" d="M217.36,180.37a1.49,1.49,0,0,0,1.49-1.48v-4.44a1.49,1.49,0,0,0-3,0v4.44A1.48,1.48,0,0,0,217.36,180.37Z"/><path class="cls-1" d="M211.68,180.37a1.49,1.49,0,0,0,1.49-1.48v-4.44a1.49,1.49,0,0,0-3,0v4.44A1.48,1.48,0,0,0,211.68,180.37Z"/><path class="cls-1" d="M234.4,123.33a1.49,1.49,0,0,0-1.48,1.49v4.44a1.48,1.48,0,1,0,3,0v-4.44A1.49,1.49,0,0,0,234.4,123.33Z"/><path class="cls-1" d="M228.72,123.33a1.49,1.49,0,0,0-1.48,1.49v4.44a1.48,1.48,0,0,0,3,0v-4.44A1.49,1.49,0,0,0,228.72,123.33Z"/><path class="cls-1" d="M223,123.33a1.49,1.49,0,0,0-1.48,1.49v4.44a1.48,1.48,0,0,0,3,0v-4.44A1.49,1.49,0,0,0,223,123.33Z"/><path class="cls-1" d="M217.36,123.33a1.49,1.49,0,0,0-1.48,1.49v4.44a1.49,1.49,0,0,0,3,0v-4.44A1.49,1.49,0,0,0,217.36,123.33Z"/><path class="cls-1" d="M227.24,81v4.44a1.49,1.49,0,0,0,3,0V81a1.49,1.49,0,1,0-3,0Z"/><path class="cls-1" d="M223.05,79.5A1.49,1.49,0,0,0,221.56,81v4.44a1.49,1.49,0,0,0,3,0V81A1.49,1.49,0,0,0,223.05,79.5Z"/><path class="cls-1" d="M217.37,79.5A1.49,1.49,0,0,0,215.88,81v4.44a1.49,1.49,0,0,0,3,0V81A1.49,1.49,0,0,0,217.37,79.5Z"/><path class="cls-1" d="M211.68,123.33a1.49,1.49,0,0,0-1.48,1.49v4.44a1.49,1.49,0,0,0,3,0v-4.44A1.49,1.49,0,0,0,211.68,123.33Z"/><path class="cls-1" d="M234.4,195.07a1.48,1.48,0,0,0,1.48-1.48v-4.44a1.48,1.48,0,1,0-3,0v4.44A1.48,1.48,0,0,0,234.4,195.07Z"/><path class="cls-1" d="M228.72,195.07a1.48,1.48,0,0,0,1.48-1.48v-4.44a1.48,1.48,0,1,0-3,0v4.44A1.48,1.48,0,0,0,228.72,195.07Z"/><path class="cls-1" d="M223,195.07a1.48,1.48,0,0,0,1.48-1.48v-4.44a1.48,1.48,0,1,0-3,0v4.44A1.48,1.48,0,0,0,223,195.07Z"/><path class="cls-1" d="M217.36,195.07a1.49,1.49,0,0,0,1.49-1.48v-4.44a1.49,1.49,0,0,0-3,0v4.44A1.48,1.48,0,0,0,217.36,195.07Z"/><path class="cls-1" d="M211.68,195.07a1.49,1.49,0,0,0,1.49-1.48v-4.44a1.49,1.49,0,0,0-3,0v4.44A1.48,1.48,0,0,0,211.68,195.07Z"/><path class="cls-1" d="M215.88,66.74v9.43h-7.79a1.48,1.48,0,1,0,0,3h2.11v8.15h-2.11a1.49,1.49,0,0,0,0,3H238a1.49,1.49,0,0,0,0-3h-2.12V79.13H238a1.48,1.48,0,0,0,0-3h-7.79V66.74A9.16,9.16,0,0,0,235.88,58c0-8.49-11.83-12.82-12.34-13h-.06l-.15,0-.14,0h-.29l-.14,0-.15,0h-.07c-.5.18-12.32,4.51-12.34,13A9.16,9.16,0,0,0,215.88,66.74Zm17,12.39v8.15H213.17V79.13h19.75Zm-14.07-3v-9h8.39v9ZM223,48c2.07.85,9.87,4.43,9.88,10a6.23,6.23,0,0,1-4.4,6.17h-11a6.21,6.21,0,0,1-4.4-6.17C213.18,52.44,221,48.86,223,48Z"/><path class="cls-1" d="M223.05,41a1.48,1.48,0,0,0,1.48-1.48V31.73a1.49,1.49,0,1,0-3,0V39.5A1.49,1.49,0,0,0,223.05,41Z"/></svg>