<svg id="Layer_1" data-name="Layer 1" xmlns="http://www.w3.org/2000/svg" viewBox="0 0 300 300"><defs><style>.cls-1{fill:#666;}</style></defs><title>Artboard 2 copy</title><path class="cls-1" d="M73.16,206h6.21a1.29,1.29,0,0,0,0-2.57H73.16a1.29,1.29,0,1,0,0,2.57Z"/><path class="cls-1" d="M76.26,207.48A1.28,1.28,0,0,0,75,208.77v28.49a1.29,1.29,0,0,0,2.57,0V208.77A1.29,1.29,0,0,0,76.26,207.48Z"/><path class="cls-1" d="M82.83,212.62H89a1.29,1.29,0,1,0,0-2.57H82.83a1.29,1.29,0,0,0,0,2.57Z"/><path class="cls-1" d="M85.94,214.12a1.29,1.29,0,0,0-1.29,1.29v21.85a1.29,1.29,0,0,0,2.57,0V215.41A1.28,1.28,0,0,0,85.94,214.12Z"/><path class="cls-1" d="M103.67,212.62h6.21a1.29,1.29,0,1,0,0-2.57h-6.21a1.29,1.29,0,1,0,0,2.57Z"/><path class="cls-1" d="M106.77,214.12a1.28,1.28,0,0,0-1.28,1.29v21.85a1.29,1.29,0,0,0,2.57,0V215.41A1.29,1.29,0,0,0,106.77,214.12Z"/><path class="cls-1" d="M93.25,206h6.21a1.29,1.29,0,1,0,0-2.57H93.25a1.29,1.29,0,0,0,0,2.57Z"/><path class="cls-1" d="M96.36,207.48a1.29,1.29,0,0,0-1.29,1.29v28.49a1.29,1.29,0,0,0,2.57,0V208.77A1.28,1.28,0,0,0,96.36,207.48Z"/><path class="cls-1" d="M113.34,206h6.22a1.29,1.29,0,0,0,0-2.57h-6.22a1.29,1.29,0,0,0,0,2.57Z"/><path class="cls-1" d="M116.45,207.48a1.28,1.28,0,0,0-1.28,1.29v28.49a1.29,1.29,0,0,0,2.57,0V208.77A1.29,1.29,0,0,0,116.45,207.48Z"/><path class="cls-1" d="M125.85,44.93a3.61,3.61,0,1,0-3.6-3.61A3.61,3.61,0,0,0,125.85,44.93Zm0-4.64a1,1,0,1,1-1,1A1,1,0,0,1,125.85,40.29Z"/><path class="cls-1" d="M133.26,44.93a3.61,3.61,0,1,0-3.6-3.61A3.61,3.61,0,0,0,133.26,44.93Zm0-4.64a1,1,0,1,1-1,1A1,1,0,0,1,133.26,40.29Z"/><path class="cls-1" d="M140.67,44.93a3.61,3.61,0,1,0-3.61-3.61A3.61,3.61,0,0,0,140.67,44.93Zm0-4.64a1,1,0,1,1-1,1A1,1,0,0,1,140.67,40.29Z"/><path class="cls-1" d="M150,36.61a1.28,1.28,0,0,0,1.28-1.28v-9a1.29,1.29,0,1,0-2.57,0v9A1.28,1.28,0,0,0,150,36.61Z"/><path class="cls-1" d="M92.47,149.86a1.28,1.28,0,0,0-1.28,1.28v5.14a1.29,1.29,0,1,0,2.57,0v-5.14A1.28,1.28,0,0,0,92.47,149.86Z"/><path class="cls-1" d="M100.21,149.86a1.28,1.28,0,0,0-1.28,1.28v5.14a1.29,1.29,0,1,0,2.57,0v-5.14A1.28,1.28,0,0,0,100.21,149.86Z"/><path class="cls-1" d="M108,149.86a1.28,1.28,0,0,0-1.28,1.28v5.14a1.29,1.29,0,1,0,2.57,0v-5.14A1.28,1.28,0,0,0,108,149.86Z"/><path class="cls-1" d="M115.69,149.86a1.28,1.28,0,0,0-1.28,1.28v5.14a1.29,1.29,0,1,0,2.57,0v-5.14A1.28,1.28,0,0,0,115.69,149.86Z"/><path class="cls-1" d="M123.43,149.86a1.28,1.28,0,0,0-1.28,1.28v5.14a1.29,1.29,0,1,0,2.57,0v-5.14A1.28,1.28,0,0,0,123.43,149.86Z"/><path class="cls-1" d="M131.18,157.57a1.28,1.28,0,0,0,1.28-1.29v-5.14a1.29,1.29,0,0,0-2.57,0v5.14A1.29,1.29,0,0,0,131.18,157.57Z"/><path class="cls-1" d="M138.92,157.57a1.28,1.28,0,0,0,1.28-1.29v-5.14a1.29,1.29,0,0,0-2.57,0v5.14A1.29,1.29,0,0,0,138.92,157.57Z"/><path class="cls-1" d="M102.24,124.14a1.28,1.28,0,0,0-1.29,1.28v3.43a1.29,1.29,0,1,0,2.57,0v-3.43A1.28,1.28,0,0,0,102.24,124.14Z"/><path class="cls-1" d="M110,124.14a1.28,1.28,0,0,0-1.29,1.28v3.43a1.29,1.29,0,1,0,2.57,0v-3.43A1.28,1.28,0,0,0,110,124.14Z"/><path class="cls-1" d="M117.72,124.14a1.28,1.28,0,0,0-1.29,1.28v3.43a1.29,1.29,0,0,0,2.58,0v-3.43A1.28,1.28,0,0,0,117.72,124.14Z"/><path class="cls-1" d="M125.46,124.14a1.28,1.28,0,0,0-1.28,1.28v3.43a1.29,1.29,0,1,0,2.57,0v-3.43A1.28,1.28,0,0,0,125.46,124.14Z"/><path class="cls-1" d="M133.2,130.14a1.29,1.29,0,0,0,1.29-1.29v-3.43a1.29,1.29,0,0,0-2.57,0v3.43A1.28,1.28,0,0,0,133.2,130.14Z"/><path class="cls-1" d="M140.94,130.14a1.29,1.29,0,0,0,1.29-1.29v-3.43a1.29,1.29,0,0,0-2.57,0v3.43A1.28,1.28,0,0,0,140.94,130.14Z"/><path class="cls-1" d="M109.89,102.73A1.29,1.29,0,0,0,108.6,104v1.5a1.29,1.29,0,1,0,2.57,0V104A1.28,1.28,0,0,0,109.89,102.73Z"/><path class="cls-1" d="M117.63,102.73a1.29,1.29,0,0,0-1.29,1.29v1.5a1.29,1.29,0,1,0,2.57,0V104A1.28,1.28,0,0,0,117.63,102.73Z"/><path class="cls-1" d="M125.37,102.73a1.29,1.29,0,0,0-1.29,1.29v1.5a1.29,1.29,0,1,0,2.57,0V104A1.28,1.28,0,0,0,125.37,102.73Z"/><path class="cls-1" d="M134.39,105.52V104a1.29,1.29,0,1,0-2.57,0v1.5a1.29,1.29,0,1,0,2.57,0Z"/><path class="cls-1" d="M140.85,106.81a1.28,1.28,0,0,0,1.28-1.29V104a1.29,1.29,0,1,0-2.57,0v1.5A1.29,1.29,0,0,0,140.85,106.81Z"/><path class="cls-1" d="M117.31,86.15A1.29,1.29,0,0,0,116,87.44v.17a1.29,1.29,0,1,0,2.57,0v-.17A1.28,1.28,0,0,0,117.31,86.15Z"/><path class="cls-1" d="M125.05,86.15a1.29,1.29,0,0,0-1.29,1.29v.17a1.29,1.29,0,0,0,2.58,0v-.17A1.29,1.29,0,0,0,125.05,86.15Z"/><path class="cls-1" d="M132.79,86.15a1.28,1.28,0,0,0-1.28,1.29v.17a1.29,1.29,0,1,0,2.57,0v-.17A1.29,1.29,0,0,0,132.79,86.15Z"/><path class="cls-1" d="M140.53,88.9a1.29,1.29,0,0,0,1.29-1.29v-.17a1.29,1.29,0,1,0-2.57,0v.17A1.28,1.28,0,0,0,140.53,88.9Z"/><path class="cls-1" d="M119.56,71.77a1.28,1.28,0,0,0-1.28,1.28v.18a1.29,1.29,0,0,0,2.57,0v-.18A1.28,1.28,0,0,0,119.56,71.77Z"/><path class="cls-1" d="M127.3,71.77A1.28,1.28,0,0,0,126,73.05v.18a1.29,1.29,0,0,0,2.57,0v-.18A1.28,1.28,0,0,0,127.3,71.77Z"/><path class="cls-1" d="M135.05,71.77a1.28,1.28,0,0,0-1.29,1.28v.18a1.29,1.29,0,0,0,2.57,0v-.18A1.28,1.28,0,0,0,135.05,71.77Z"/><path class="cls-1" d="M142.79,74.51a1.28,1.28,0,0,0,1.28-1.28v-.18a1.29,1.29,0,0,0-2.57,0v.18A1.28,1.28,0,0,0,142.79,74.51Z"/><path class="cls-1" d="M79.41,178.35a1.28,1.28,0,0,0-1.29,1.28v7.07a1.29,1.29,0,1,0,2.57,0v-7.07A1.28,1.28,0,0,0,79.41,178.35Z"/><path class="cls-1" d="M87.15,178.35a1.28,1.28,0,0,0-1.29,1.28v7.07a1.29,1.29,0,1,0,2.57,0v-7.07A1.28,1.28,0,0,0,87.15,178.35Z"/><path class="cls-1" d="M94.89,178.35a1.28,1.28,0,0,0-1.28,1.28v7.07a1.29,1.29,0,1,0,2.57,0v-7.07A1.28,1.28,0,0,0,94.89,178.35Z"/><path class="cls-1" d="M102.63,178.35a1.28,1.28,0,0,0-1.28,1.28v7.07a1.29,1.29,0,1,0,2.57,0v-7.07A1.28,1.28,0,0,0,102.63,178.35Z"/><path class="cls-1" d="M110.37,178.35a1.28,1.28,0,0,0-1.28,1.28v7.07a1.29,1.29,0,1,0,2.57,0v-7.07A1.28,1.28,0,0,0,110.37,178.35Z"/><path class="cls-1" d="M118.11,178.35a1.28,1.28,0,0,0-1.28,1.28v7.07a1.29,1.29,0,1,0,2.57,0v-7.07A1.28,1.28,0,0,0,118.11,178.35Z"/><path class="cls-1" d="M125.85,178.35a1.28,1.28,0,0,0-1.28,1.28v7.07a1.29,1.29,0,1,0,2.57,0v-7.07A1.28,1.28,0,0,0,125.85,178.35Z"/><path class="cls-1" d="M133.32,188a1.29,1.29,0,0,0,1.29-1.29v-7.07a1.29,1.29,0,0,0-2.57,0v7.07A1.28,1.28,0,0,0,133.32,188Z"/><path class="cls-1" d="M141.06,188a1.29,1.29,0,0,0,1.29-1.29v-7.07a1.29,1.29,0,0,0-2.57,0v7.07A1.28,1.28,0,0,0,141.06,188Z"/><path class="cls-1" d="M232.24,189.7h-4.11V175.35a1.29,1.29,0,0,0-1.29-1.29H221.6V161.21a1.28,1.28,0,0,0-1.28-1.28H216.2V146.62a1.28,1.28,0,0,0-1.28-1.29H210V133.42a1.28,1.28,0,0,0-1.28-1.28h-3.82V120.85a1.28,1.28,0,0,0-1.29-1.28H201V109.49a1.29,1.29,0,0,0-1.29-1.29h-2.48v-8.15a1.28,1.28,0,0,0-1.28-1.29h-2.1V91.51a1.28,1.28,0,0,0-1.28-1.28H191V83.54a1.29,1.29,0,0,0-1.29-1.29h-.85V76.33A1.29,1.29,0,0,0,187.61,75h-1V70a1.28,1.28,0,0,0-1.28-1.28h-.86V64.19a1.28,1.28,0,0,0-1.28-1.29h-2.6V60.56c4.42-1.56,7.2-5.79,7.18-11.07,0-4.7-2.62-10.06-8.33-11.42A1.29,1.29,0,0,0,178,39.92c2,3.78,1.23,5.43.8,6H156.35c-.44-.58-.91-1.17-1.39-1.78a42.62,42.62,0,0,1-3.85-5.42s0,0,0-.07a.76.76,0,0,0-.08-.11l-.09-.09a.34.34,0,0,0-.09-.08.48.48,0,0,0-.11-.09l-.06,0,0,0-.14-.06-.1,0a.31.31,0,0,0-.13,0l-.12,0h-.24l-.13,0-.12,0-.11,0-.12,0,0,0-.06,0-.11.08-.1.09-.08.09a.76.76,0,0,0-.08.11l-.05.07A41.64,41.64,0,0,1,145,44.11c-.48.61-.95,1.2-1.39,1.78H121.2c-.43-.54-1.2-2.18.8-6a1.29,1.29,0,0,0-1.44-1.85c-5.72,1.36-8.3,6.72-8.33,11.42,0,5.28,2.76,9.51,7.18,11.07V62.9h-2.6a1.28,1.28,0,0,0-1.28,1.29v4.48h-.86A1.28,1.28,0,0,0,113.39,70V75h-1a1.29,1.29,0,0,0-1.29,1.29v5.92h-.86A1.28,1.28,0,0,0,109,83.54v6.69h-1.48a1.28,1.28,0,0,0-1.28,1.28v7.25h-2.1a1.28,1.28,0,0,0-1.28,1.29v8.15h-2.48a1.29,1.29,0,0,0-1.29,1.29v10.08H96.36a1.28,1.28,0,0,0-1.29,1.28v11.29H91.25A1.28,1.28,0,0,0,90,133.42v11.91H85.08a1.28,1.28,0,0,0-1.28,1.29v13.31H79.68a1.28,1.28,0,0,0-1.28,1.28v12.85H73.16a1.29,1.29,0,0,0-1.29,1.29V189.7H67.76A1.29,1.29,0,0,0,66.47,191v82.68A1.29,1.29,0,0,0,67.76,275h61.48a1.28,1.28,0,0,0,1.28-1.29V207.48h39v66.19a1.28,1.28,0,0,0,1.28,1.29h61.48a1.29,1.29,0,0,0,1.29-1.29V191A1.29,1.29,0,0,0,232.24,189.7Zm-21.3,82.69L176.33,245.6V243H182l37.92,29.35Zm-13.13,0-21.48-16.62v-6.92l30.41,23.54Zm-13.14,0-8.34-6.46V259l17.28,13.37ZM150,204.91H126.24v-4.07h47.52v4.07Zm-43.61,67.48L123.67,259v6.91l-8.34,6.46Zm-13.13,0,30.41-23.54v6.92l-21.48,16.62Zm-13.14,0L118,243h5.63v2.56L89.05,272.39Zm43.55-3.21v3.21h-4.14Zm0-63v34.28H69V200.84h54.63ZM69,250.46l9.6-7.42h8.93L69,257.38Zm0-3.25V243h5.39Zm0,13.42L91.77,243h8.94L69,267.54Zm107.29,8.55,4.14,3.21h-4.14Zm0-28.71V200.84H231v39.63Zm45,2.57,9.6,7.42v6.92L212.43,243Zm4.2,0H231v4.17Zm-17.33,0L231,260.63v6.91L199.29,243Zm17.33-53.34H155.34V176.63h70.22Zm-75.56,0h-2.77V176.63h5.54V189.7ZM148.93,65.85v-.38h2.14v.38a1.28,1.28,0,0,0,1.28,1.28h2.47v.38a1.29,1.29,0,0,0,.73,1.16h-11.1a1.29,1.29,0,0,0,.73-1.16v-.38h2.47A1.28,1.28,0,0,0,148.93,65.85Zm.7,5.39h.74V75h-.74Zm-1.29,7.16v-.79h3.32v.79a1.28,1.28,0,0,0,1.28,1.29h3.41v.79a1.28,1.28,0,0,0,1.29,1.28h2.54v.49H139.82v-.49h2.54a1.28,1.28,0,0,0,1.28-1.28v-.79h3.42A1.28,1.28,0,0,0,148.34,78.4Zm.88,6.42h1.56v5.41h-1.56ZM147.8,94V92.8h4.4V94a1.28,1.28,0,0,0,1.28,1.29h4.28v1.17A1.28,1.28,0,0,0,159,97.71h3.24v1.05H137.72V97.71H141a1.28,1.28,0,0,0,1.28-1.28V95.26h4.28A1.28,1.28,0,0,0,147.8,94Zm1,7.36h2.32v6.87h-2.32Zm-2.19,11.43v-2h6.7v2a1.29,1.29,0,0,0,1.29,1.29h6.11v2a1.29,1.29,0,0,0,1.29,1.29h4.74v2.25H133.22v-2.25H138a1.29,1.29,0,0,0,1.29-1.29v-2h6.11A1.29,1.29,0,0,0,146.65,112.76Zm1.38,9.38H152v10H148Zm-2.13,15.08v-2.51h8.2v2.51a1.28,1.28,0,0,0,1.28,1.29h7.31V141A1.28,1.28,0,0,0,164,142.3h5.71v3H130.31v-3H136a1.28,1.28,0,0,0,1.29-1.28v-2.51h7.31A1.28,1.28,0,0,0,145.9,137.22Zm1.6,10.68h5v12h-5Zm-2,17.38V162.5h9v2.78a1.29,1.29,0,0,0,1.29,1.29h7.92v2.78a1.29,1.29,0,0,0,1.29,1.29h6.21v3.42H128.81v-3.42H135a1.29,1.29,0,0,0,1.29-1.29v-2.78h7.92A1.29,1.29,0,0,0,145.52,165.28Zm68.11-5.35H172.48a1.29,1.29,0,1,0,0,2.57H219v11.56H173.76v-4.71a1.28,1.28,0,0,0-1.28-1.28h-6.22v-2.79A1.28,1.28,0,0,0,165,164h-7.93v-2.79a1.28,1.28,0,0,0-1.28-1.28h-.7v-12h58.56Zm-11.27-27.79H171.11a1.29,1.29,0,0,0,0,2.57h36.35v10.62h-35.2V141a1.28,1.28,0,0,0-1.28-1.29h-5.72v-2.51a1.28,1.28,0,0,0-1.28-1.28h-7.31v-2.52a1.28,1.28,0,0,0-1.29-1.28h-.84v-10h47.82Zm-7.75-23.94H168.07a1.29,1.29,0,1,0,0,2.57h30.31v8.8h-29V116a1.28,1.28,0,0,0-1.28-1.28h-4.75v-2a1.28,1.28,0,0,0-1.28-1.29h-6.12v-2a1.28,1.28,0,0,0-1.28-1.29h-.91v-6.87h40.88Zm-31-18a1.29,1.29,0,1,0,0,2.57h27.66v6H164.85V96.43a1.28,1.28,0,0,0-1.28-1.29h-3.24V94A1.28,1.28,0,0,0,159,92.69h-4.27V91.51a1.28,1.28,0,0,0-1.29-1.28h-.13V84.82h35.12v5.41ZM161.46,75a1.29,1.29,0,0,0,0,2.57h24.87v4.64H162.75V80.48a1.29,1.29,0,0,0-1.29-1.29h-2.53V78.4a1.28,1.28,0,0,0-1.29-1.28h-3.41v-.79A1.29,1.29,0,0,0,152.94,75h0v-3.8H184V75ZM185.19,49.5c0,3-1.21,6.63-4.6,8.28v-10c.76-.82,1.85-2.65.94-6A9.56,9.56,0,0,1,185.19,49.5ZM150,41.76c1,1.5,2,2.79,2.95,4,2.23,2.8,3.37,4.34,2.83,6.14-.9,3-4.94,3.88-5.78,4-.84-.14-4.88-1-5.78-4-.54-1.8.6-3.34,2.83-6.14C148,44.55,149,43.26,150,41.76ZM114.8,49.5a9.6,9.6,0,0,1,3.67-7.72c-.91,3.31.18,5.14.94,6v10C116,56.13,114.79,52.45,114.8,49.5Zm3.3,16H141a1.29,1.29,0,0,0,0-2.57H122V48.46h20.1a5.76,5.76,0,0,0-.33,4.12c1.48,5,7.82,5.84,8.09,5.87h.32c.27,0,6.61-.89,8.09-5.87a5.71,5.71,0,0,0-.34-4.12H178V62.9H159a1.29,1.29,0,0,0,0,2.57H181.9v3.2H160.45V67.51a1.29,1.29,0,0,0-1.29-1.29h-1.77v-.37a1.29,1.29,0,0,0-1.29-1.29h-2.46v-.37a1.29,1.29,0,0,0-1.29-1.29h-4.7a1.29,1.29,0,0,0-1.29,1.29v.37h-2.47a1.28,1.28,0,0,0-1.28,1.29v.37h-1.77a1.29,1.29,0,0,0-1.29,1.29v1.16H118.1Zm-4.43,12.14h24.86a1.29,1.29,0,1,0,0-2.57H116v-3.8h31.1V75h0a1.29,1.29,0,0,0-1.29,1.29v.79h-3.41a1.28,1.28,0,0,0-1.29,1.28v.79h-2.54a1.28,1.28,0,0,0-1.28,1.29v1.77H113.67Zm-4.9,15.19h27.66a1.29,1.29,0,1,0,0-2.57h-24.9V84.82h35.12v5.41h-.13a1.28,1.28,0,0,0-1.29,1.28v1.18H141A1.28,1.28,0,0,0,139.67,94v1.17h-3.24a1.28,1.28,0,0,0-1.28,1.29v2.33H108.77Zm-7.15,18h30.31a1.29,1.29,0,1,0,0-2.57H105.39v-6.87h40.88v6.87h-.91a1.28,1.28,0,0,0-1.28,1.29v2H138a1.29,1.29,0,0,0-1.29,1.29v2h-4.74a1.28,1.28,0,0,0-1.28,1.28v3.54h-29Zm-9.08,23.94h36.35a1.29,1.29,0,1,0,0-2.57H97.64v-10h47.82v10h-.84a1.28,1.28,0,0,0-1.29,1.28v2.52H136a1.28,1.28,0,0,0-1.28,1.28v2.51H129a1.28,1.28,0,0,0-1.28,1.29v4.31H92.54ZM81,162.5h46.55a1.29,1.29,0,1,0,0-2.57H86.37v-12h58.56v12h-.7a1.28,1.28,0,0,0-1.28,1.28V164H135a1.28,1.28,0,0,0-1.28,1.28v2.79h-6.22a1.28,1.28,0,0,0-1.28,1.28v4.71H81Zm-6.53,14.13h70.22V189.7H74.44ZM69,192.27H231v6H69Zm0,78.52L104.91,243h8.93L75.92,272.39H69Zm58.91,1.6h-1.71V207.48H128Zm44.1-64.91h1.71v64.91h-1.71Zm52,64.91L186.16,243h8.93L231,270.79v1.6Z"/><path class="cls-1" d="M226.84,203.41h-6.21a1.29,1.29,0,0,0,0,2.57h6.21a1.29,1.29,0,1,0,0-2.57Z"/><path class="cls-1" d="M223.74,207.48a1.29,1.29,0,0,0-1.29,1.29v28.49a1.29,1.29,0,0,0,2.57,0V208.77A1.28,1.28,0,0,0,223.74,207.48Z"/><path class="cls-1" d="M217.17,210.05H211a1.29,1.29,0,1,0,0,2.57h6.21a1.29,1.29,0,0,0,0-2.57Z"/><path class="cls-1" d="M214.06,214.12a1.28,1.28,0,0,0-1.28,1.29v21.85a1.29,1.29,0,0,0,2.57,0V215.41A1.29,1.29,0,0,0,214.06,214.12Z"/><path class="cls-1" d="M196.33,210.05h-6.21a1.29,1.29,0,1,0,0,2.57h6.21a1.29,1.29,0,1,0,0-2.57Z"/><path class="cls-1" d="M193.23,214.12a1.29,1.29,0,0,0-1.29,1.29v21.85a1.29,1.29,0,0,0,2.57,0V215.41A1.28,1.28,0,0,0,193.23,214.12Z"/><path class="cls-1" d="M206.75,203.41h-6.21a1.29,1.29,0,1,0,0,2.57h6.21a1.29,1.29,0,0,0,0-2.57Z"/><path class="cls-1" d="M203.64,207.48a1.28,1.28,0,0,0-1.28,1.29v28.49a1.29,1.29,0,0,0,2.57,0V208.77A1.29,1.29,0,0,0,203.64,207.48Z"/><path class="cls-1" d="M186.66,203.41h-6.22a1.29,1.29,0,0,0,0,2.57h6.22a1.29,1.29,0,0,0,0-2.57Z"/><path class="cls-1" d="M183.55,207.48a1.29,1.29,0,0,0-1.29,1.29v28.49a1.29,1.29,0,0,0,2.57,0V208.77A1.28,1.28,0,0,0,183.55,207.48Z"/><path class="cls-1" d="M174.15,37.72a3.61,3.61,0,1,0,3.6,3.6A3.6,3.6,0,0,0,174.15,37.72Zm0,4.64a1,1,0,1,1,1-1A1,1,0,0,1,174.15,42.36Z"/><path class="cls-1" d="M166.74,44.93a3.61,3.61,0,1,0-3.6-3.61A3.61,3.61,0,0,0,166.74,44.93Zm0-4.64a1,1,0,1,1-1,1A1,1,0,0,1,166.74,40.29Z"/><path class="cls-1" d="M159.33,44.93a3.61,3.61,0,1,0-3.6-3.61A3.61,3.61,0,0,0,159.33,44.93Zm0-4.64a1,1,0,1,1-1,1A1,1,0,0,1,159.33,40.29Z"/><path class="cls-1" d="M207.53,149.86a1.28,1.28,0,0,0-1.29,1.28v5.14a1.29,1.29,0,1,0,2.57,0v-5.14A1.28,1.28,0,0,0,207.53,149.86Z"/><path class="cls-1" d="M199.79,149.86a1.28,1.28,0,0,0-1.29,1.28v5.14a1.29,1.29,0,1,0,2.57,0v-5.14A1.28,1.28,0,0,0,199.79,149.86Z"/><path class="cls-1" d="M192.05,149.86a1.28,1.28,0,0,0-1.29,1.28v5.14a1.29,1.29,0,1,0,2.57,0v-5.14A1.28,1.28,0,0,0,192.05,149.86Z"/><path class="cls-1" d="M184.31,149.86a1.28,1.28,0,0,0-1.29,1.28v5.14a1.29,1.29,0,1,0,2.57,0v-5.14A1.28,1.28,0,0,0,184.31,149.86Z"/><path class="cls-1" d="M176.56,149.86a1.28,1.28,0,0,0-1.28,1.28v5.14a1.29,1.29,0,1,0,2.57,0v-5.14A1.28,1.28,0,0,0,176.56,149.86Z"/><path class="cls-1" d="M168.82,149.86a1.28,1.28,0,0,0-1.28,1.28v5.14a1.29,1.29,0,1,0,2.57,0v-5.14A1.28,1.28,0,0,0,168.82,149.86Z"/><path class="cls-1" d="M161.08,149.86a1.28,1.28,0,0,0-1.28,1.28v5.14a1.29,1.29,0,1,0,2.57,0v-5.14A1.28,1.28,0,0,0,161.08,149.86Z"/><path class="cls-1" d="M197.76,124.14a1.28,1.28,0,0,0-1.28,1.28v3.43a1.29,1.29,0,1,0,2.57,0v-3.43A1.28,1.28,0,0,0,197.76,124.14Z"/><path class="cls-1" d="M190,124.14a1.28,1.28,0,0,0-1.28,1.28v3.43a1.29,1.29,0,1,0,2.57,0v-3.43A1.28,1.28,0,0,0,190,124.14Z"/><path class="cls-1" d="M182.28,124.14a1.28,1.28,0,0,0-1.29,1.28v3.43a1.29,1.29,0,1,0,2.57,0v-3.43A1.28,1.28,0,0,0,182.28,124.14Z"/><path class="cls-1" d="M174.54,124.14a1.28,1.28,0,0,0-1.29,1.28v3.43a1.29,1.29,0,1,0,2.57,0v-3.43A1.28,1.28,0,0,0,174.54,124.14Z"/><path class="cls-1" d="M166.8,124.14a1.28,1.28,0,0,0-1.29,1.28v3.43a1.29,1.29,0,1,0,2.57,0v-3.43A1.28,1.28,0,0,0,166.8,124.14Z"/><path class="cls-1" d="M159.06,124.14a1.28,1.28,0,0,0-1.29,1.28v3.43a1.29,1.29,0,1,0,2.57,0v-3.43A1.28,1.28,0,0,0,159.06,124.14Z"/><path class="cls-1" d="M190.11,102.73a1.29,1.29,0,0,0-1.28,1.29v1.5a1.29,1.29,0,1,0,2.57,0V104A1.29,1.29,0,0,0,190.11,102.73Z"/><path class="cls-1" d="M182.37,102.73a1.28,1.28,0,0,0-1.28,1.29v1.5a1.29,1.29,0,1,0,2.57,0V104A1.29,1.29,0,0,0,182.37,102.73Z"/><path class="cls-1" d="M174.63,102.73a1.28,1.28,0,0,0-1.28,1.29v1.5a1.29,1.29,0,1,0,2.57,0V104A1.29,1.29,0,0,0,174.63,102.73Z"/><path class="cls-1" d="M166.89,102.73a1.28,1.28,0,0,0-1.28,1.29v1.5a1.29,1.29,0,1,0,2.57,0V104A1.29,1.29,0,0,0,166.89,102.73Z"/><path class="cls-1" d="M159.15,102.73a1.28,1.28,0,0,0-1.28,1.29v1.5a1.29,1.29,0,1,0,2.57,0V104A1.29,1.29,0,0,0,159.15,102.73Z"/><path class="cls-1" d="M182.69,86.15a1.28,1.28,0,0,0-1.28,1.29v.17a1.29,1.29,0,1,0,2.57,0v-.17A1.29,1.29,0,0,0,182.69,86.15Z"/><path class="cls-1" d="M175,86.15a1.29,1.29,0,0,0-1.29,1.29v.17a1.29,1.29,0,1,0,2.57,0v-.17A1.28,1.28,0,0,0,175,86.15Z"/><path class="cls-1" d="M167.21,86.15a1.29,1.29,0,0,0-1.29,1.29v.17a1.29,1.29,0,1,0,2.57,0v-.17A1.28,1.28,0,0,0,167.21,86.15Z"/><path class="cls-1" d="M159.47,86.15a1.29,1.29,0,0,0-1.29,1.29v.17a1.29,1.29,0,1,0,2.57,0v-.17A1.28,1.28,0,0,0,159.47,86.15Z"/><path class="cls-1" d="M180.44,71.77a1.28,1.28,0,0,0-1.29,1.28v.18a1.29,1.29,0,0,0,2.57,0v-.18A1.28,1.28,0,0,0,180.44,71.77Z"/><path class="cls-1" d="M172.7,71.77a1.28,1.28,0,0,0-1.29,1.28v.18a1.29,1.29,0,0,0,2.57,0v-.18A1.28,1.28,0,0,0,172.7,71.77Z"/><path class="cls-1" d="M165,71.77a1.28,1.28,0,0,0-1.28,1.28v.18a1.29,1.29,0,0,0,2.57,0v-.18A1.28,1.28,0,0,0,165,71.77Z"/><path class="cls-1" d="M157.21,71.77a1.28,1.28,0,0,0-1.28,1.28v.18a1.29,1.29,0,0,0,2.57,0v-.18A1.28,1.28,0,0,0,157.21,71.77Z"/><path class="cls-1" d="M219.31,179.63v7.07a1.29,1.29,0,1,0,2.57,0v-7.07a1.29,1.29,0,0,0-2.57,0Z"/><path class="cls-1" d="M212.85,178.35a1.28,1.28,0,0,0-1.29,1.28v7.07a1.29,1.29,0,1,0,2.57,0v-7.07A1.28,1.28,0,0,0,212.85,178.35Z"/><path class="cls-1" d="M205.11,178.35a1.28,1.28,0,0,0-1.29,1.28v7.07a1.29,1.29,0,1,0,2.57,0v-7.07A1.28,1.28,0,0,0,205.11,178.35Z"/><path class="cls-1" d="M197.37,178.35a1.28,1.28,0,0,0-1.29,1.28v7.07a1.29,1.29,0,1,0,2.57,0v-7.07A1.28,1.28,0,0,0,197.37,178.35Z"/><path class="cls-1" d="M189.63,178.35a1.28,1.28,0,0,0-1.29,1.28v7.07a1.29,1.29,0,1,0,2.57,0v-7.07A1.28,1.28,0,0,0,189.63,178.35Z"/><path class="cls-1" d="M181.89,178.35a1.28,1.28,0,0,0-1.29,1.28v7.07a1.29,1.29,0,1,0,2.57,0v-7.07A1.28,1.28,0,0,0,181.89,178.35Z"/><path class="cls-1" d="M174.15,178.35a1.28,1.28,0,0,0-1.29,1.28v7.07a1.29,1.29,0,1,0,2.57,0v-7.07A1.28,1.28,0,0,0,174.15,178.35Z"/><path class="cls-1" d="M166.68,178.35a1.28,1.28,0,0,0-1.29,1.28v7.07a1.29,1.29,0,1,0,2.57,0v-7.07A1.28,1.28,0,0,0,166.68,178.35Z"/><path class="cls-1" d="M158.94,178.35a1.28,1.28,0,0,0-1.29,1.28v7.07a1.29,1.29,0,1,0,2.57,0v-7.07A1.28,1.28,0,0,0,158.94,178.35Z"/></svg>