<svg id="Layer_1" data-name="Layer 1" xmlns="http://www.w3.org/2000/svg" viewBox="0 0 300 300"><defs><style>.cls-1{fill:#666;}</style></defs><title>Artboard 2 copy 4</title><path class="cls-1" d="M98.77,245.76H201a1.43,1.43,0,0,0,0-2.86H98.77a1.43,1.43,0,1,0,0,2.86Z"/><path class="cls-1" d="M102.8,240H197a1.44,1.44,0,0,0,0-2.87H102.8a1.44,1.44,0,0,0,0,2.87Z"/><path class="cls-1" d="M107.22,235.25h85.34a1.43,1.43,0,0,0,0-2.86H107.22a1.43,1.43,0,1,0,0,2.86Z"/><path class="cls-1" d="M111.76,230.47H188a1.43,1.43,0,1,0,0-2.86H111.76a1.43,1.43,0,0,0,0,2.86Z"/><path class="cls-1" d="M118.68,168.36h1.21v1.22a1.44,1.44,0,0,0,2.87,0v-1.22H124a1.43,1.43,0,0,0,0-2.86h-1.22v-1.22a1.44,1.44,0,0,0-2.87,0v1.22h-1.21a1.43,1.43,0,0,0,0,2.86Z"/><path class="cls-1" d="M85.24,168.36h1.21v1.22a1.44,1.44,0,0,0,2.87,0v-1.22h1.21a1.43,1.43,0,0,0,0-2.86H89.32v-1.22a1.44,1.44,0,0,0-2.87,0v1.22H85.24a1.43,1.43,0,1,0,0,2.86Z"/><path class="cls-1" d="M116.55,206.59h9.56a1.44,1.44,0,0,0,1.43-1.44V178.4a1.44,1.44,0,0,0-1.43-1.44h-9.56a1.44,1.44,0,0,0-1.43,1.44v26.75A1.44,1.44,0,0,0,116.55,206.59ZM118,179.83h6.69v23.89H118Z"/><path class="cls-1" d="M79.28,206.59H86a1.45,1.45,0,0,0,1.44-1.44V178.4A1.45,1.45,0,0,0,86,177H79.28a1.44,1.44,0,0,0-1.43,1.44v26.75A1.44,1.44,0,0,0,79.28,206.59Zm1.44-26.76h3.82v23.89H80.72Z"/><path class="cls-1" d="M88.36,178.4v26.75a1.44,1.44,0,0,0,1.43,1.44h6.69a1.44,1.44,0,0,0,1.44-1.44V178.4A1.44,1.44,0,0,0,96.48,177H89.79A1.44,1.44,0,0,0,88.36,178.4Zm2.87,1.43h3.82v23.89H91.23Z"/><path class="cls-1" d="M135.66,206.34a1.43,1.43,0,0,0,1.43-1.43V182.45a1.43,1.43,0,0,0-2.86,0v22.46A1.43,1.43,0,0,0,135.66,206.34Z"/><path class="cls-1" d="M107,206.34a1.43,1.43,0,0,0,1.44-1.43V182.45a1.44,1.44,0,0,0-2.87,0v22.46A1.43,1.43,0,0,0,107,206.34Z"/><path class="cls-1" d="M68.77,206.34a1.44,1.44,0,0,0,1.44-1.43V182.45a1.44,1.44,0,0,0-2.87,0v22.46A1.43,1.43,0,0,0,68.77,206.34Z"/><path class="cls-1" d="M115.41,215.19h12.18a1.44,1.44,0,1,0,0-2.87H115.41a1.44,1.44,0,0,0,0,2.87Z"/><path class="cls-1" d="M77.75,215.19h20.3a1.44,1.44,0,0,0,0-2.87H77.75a1.44,1.44,0,1,0,0,2.87Z"/><path class="cls-1" d="M176,168.36h1.22v1.22a1.43,1.43,0,1,0,2.86,0v-1.22h1.22a1.43,1.43,0,0,0,0-2.86h-1.22v-1.22a1.43,1.43,0,0,0-2.86,0v1.22H176a1.43,1.43,0,1,0,0,2.86Z"/><path class="cls-1" d="M147.35,168.36h1.21v1.22a1.44,1.44,0,0,0,2.87,0v-1.22h1.21a1.43,1.43,0,1,0,0-2.86h-1.21v-1.22a1.44,1.44,0,0,0-2.87,0v1.22h-1.21a1.43,1.43,0,1,0,0,2.86Z"/><path class="cls-1" d="M209.46,168.36h1.21v1.22a1.44,1.44,0,0,0,2.87,0v-1.22h1.21a1.43,1.43,0,1,0,0-2.86h-1.21v-1.22a1.44,1.44,0,0,0-2.87,0v1.22h-1.21a1.43,1.43,0,1,0,0,2.86Z"/><path class="cls-1" d="M173.88,206.59h9.56a1.44,1.44,0,0,0,1.43-1.44V178.4a1.44,1.44,0,0,0-1.43-1.44h-9.56a1.44,1.44,0,0,0-1.43,1.44v26.75A1.44,1.44,0,0,0,173.88,206.59Zm1.44-26.76H182v23.89h-6.69Z"/><path class="cls-1" d="M212.58,178.4v26.75a1.45,1.45,0,0,0,1.44,1.44h6.69a1.44,1.44,0,0,0,1.43-1.44V178.4a1.44,1.44,0,0,0-1.43-1.44H214A1.45,1.45,0,0,0,212.58,178.4Zm2.87,1.43h3.82v23.89h-3.82Z"/><path class="cls-1" d="M203.51,206.59h6.68a1.44,1.44,0,0,0,1.44-1.44V178.4a1.44,1.44,0,0,0-1.44-1.44h-6.68a1.44,1.44,0,0,0-1.44,1.44v26.75A1.44,1.44,0,0,0,203.51,206.59Zm1.43-26.76h3.82v23.89h-3.82Z"/><path class="cls-1" d="M164.33,206.34a1.43,1.43,0,0,0,1.43-1.43V182.45a1.44,1.44,0,0,0-2.87,0v22.46A1.44,1.44,0,0,0,164.33,206.34Z"/><path class="cls-1" d="M193,206.34a1.43,1.43,0,0,0,1.44-1.43V182.45a1.44,1.44,0,0,0-2.87,0v22.46A1.43,1.43,0,0,0,193,206.34Z"/><path class="cls-1" d="M231.22,206.34a1.43,1.43,0,0,0,1.43-1.43V182.45a1.44,1.44,0,0,0-2.87,0v22.46A1.44,1.44,0,0,0,231.22,206.34Z"/><path class="cls-1" d="M172.48,215.19h12.18a1.44,1.44,0,0,0,0-2.87H172.48a1.44,1.44,0,1,0,0,2.87Z"/><path class="cls-1" d="M202,215.19h20.3a1.44,1.44,0,1,0,0-2.87H202a1.44,1.44,0,0,0,0,2.87Z"/><path class="cls-1" d="M246.7,73.19a1.43,1.43,0,0,0-1.15-2.29h-10V60.85a6.28,6.28,0,0,0,2.16-7.51,6,6,0,0,0-3.45-3.4,6.47,6.47,0,0,0-9,5.83,6.26,6.26,0,0,0,2.63,5.08v2.4H196.34V61a6.24,6.24,0,0,0,2.2-6,5.63,5.63,0,0,0-11.19,1.16,6.19,6.19,0,0,0,2.3,4.86v2.3h-22V61A5.86,5.86,0,0,0,169.94,54a5.94,5.94,0,0,0-3.58-3.54c-4.6-1.65-9,1.51-9,5.61A5.9,5.9,0,0,0,160,61v2.3H140V61A5.86,5.86,0,0,0,142.23,54a5.94,5.94,0,0,0-3.58-3.54c-4.6-1.65-9,1.51-9,5.61A5.91,5.91,0,0,0,132.32,61v2.3h-22V61a6.24,6.24,0,0,0,2.2-6,5.63,5.63,0,0,0-11.19,1.16,6.19,6.19,0,0,0,2.3,4.86v2.3H72.12V61A5.9,5.9,0,0,0,70.8,50.48c-4.6-1.65-9,1.51-9,5.61A5.93,5.93,0,0,0,64.47,61v10H54.62a1.3,1.3,0,0,0-1.18.79,1.54,1.54,0,0,0,.12,1.5l3.27,4.72v66.56H54.62a1.31,1.31,0,0,0-1.18.8,1.54,1.54,0,0,0,.12,1.5l3.27,4.72v66.56H54.44a1.45,1.45,0,0,0-1.28.79,1.39,1.39,0,0,0,.14,1.48L56.83,225v24.12a1.43,1.43,0,0,0,1.43,1.43H241.73a1.43,1.43,0,0,0,1.43-1.43V225l3.53-4.67a1.39,1.39,0,0,0,.14-1.48,1.45,1.45,0,0,0-1.28-.79h-2.39V151.49l3.54-4.72a1.43,1.43,0,0,0,.14-1.5,1.44,1.44,0,0,0-1.29-.8h-2.39V77.91ZM231.5,52.82A3.19,3.19,0,1,1,228.31,56,3.19,3.19,0,0,1,231.5,52.82Zm1.15,9.48v8.6h-1.91V62.3Zm-36.31,3.82h31.53V70.9H196.34Zm-3.49-13.3A3.19,3.19,0,1,1,189.66,56,3.18,3.18,0,0,1,192.85,52.82Zm.62,11.79V70.9h-.95V62.3h.95v2.29h.1S193.57,64.61,193.47,64.61Zm-25.8,1.51h21V70.9h-21Zm-3.38-13.3A3.19,3.19,0,1,1,161.1,56,3.19,3.19,0,0,1,164.29,52.82Zm.52,9.48v8.6h-1.92V62.3ZM140,66.12h21V70.9H140Zm-4.18-13.3A3.19,3.19,0,1,1,132.6,56,3.19,3.19,0,0,1,135.78,52.82Zm1.31,9.48v8.6h-1.91V62.3Zm-25.8,3.82h21V70.9h-21Zm-4.07-13.3A3.19,3.19,0,1,1,104,56,3.18,3.18,0,0,1,107.22,52.82Zm.25,9.48v8.6h-1V62.3ZM72.12,66.12h31.53V70.9H72.12Zm-3.55-13.3A3.19,3.19,0,1,1,65.39,56,3.19,3.19,0,0,1,68.57,52.82Zm.68,9.48v8.6H67.34V62.3Zm171,185.37H59.7v-22H240.29Zm.92-24.84H58.86l-1.67-1.91H242.88Zm-177.06-43h8.29a1.44,1.44,0,0,0,0-2.87h-.32v-6.05c0-10.2,14.18-13.42,15.85-13.76,1.57.32,14.07,3.13,15.68,11.87V177h.29a1.44,1.44,0,0,0,0,2.87h7.67a1.44,1.44,0,0,0,0-2.87h-.32v-8.31c0-6.69,9.1-8.93,10.52-9.24,1.42.31,10.51,2.52,10.51,9.24V177h.27a1.44,1.44,0,0,0,0,2.87h7.68a1.44,1.44,0,0,0,0-2.87H140v-8.91c.53-6.23,9.14-8.34,10.51-8.64,1.39.3,10,2.39,10.51,8.64V177h-.66a1.44,1.44,0,0,0,0,2.87H168a1.44,1.44,0,0,0,0-2.87h-.32v-8.31c0-6.69,9.1-8.93,10.52-9.24,1.42.31,10.5,2.52,10.5,9.24V177h.15a1.44,1.44,0,0,0,0,2.87h7.82a1.44,1.44,0,0,0,0-2.87h-.32V169c1.61-8.72,14.12-11.55,15.68-11.87,1.68.34,15.85,3.53,15.85,13.76V177h-.29a1.44,1.44,0,0,0,0,2.87h7.28a1.44,1.44,0,0,0,0-2.87h-.3V152.12h5.73v65.93h-5.73v-6.69h.32a1.43,1.43,0,0,0,0-2.86h-7.8a1.43,1.43,0,1,0,0,2.86h.79v5.74H196.34v-5.74h.32a1.43,1.43,0,1,0,0-2.86h-7.81a1.43,1.43,0,1,0,0,2.86h-.16v5.74h-21v-5.74H168a1.43,1.43,0,0,0,0-2.86h-7.8a1.43,1.43,0,1,0,0,2.86H161v5.74H140v-5.74h.32a1.43,1.43,0,1,0,0-2.86h-7.8a1.43,1.43,0,1,0,0,2.86h-.16v5.74h-21v-5.74h.32a1.43,1.43,0,1,0,0-2.86h-7.8a1.43,1.43,0,0,0,0,2.86h-.16v5.74H72.12v-5.74h.34a1.43,1.43,0,1,0,0-2.86H64.13a1.43,1.43,0,1,0,0,2.86h.34v6.69H59.7V152.12h4.77V177h-.32a1.44,1.44,0,0,0,0,2.87ZM67.34,177V152.12h1.91V177Zm4.78-14.5V152.12h31.53v10.12a20.18,20.18,0,0,0-6.32-5,34.73,34.73,0,0,0-9-3.2,5.78,5.78,0,0,0-.68,0,34.73,34.73,0,0,0-9,3.2A19.9,19.9,0,0,0,72.12,162.46Zm34.4,5.91V152.12h1V177h-1v-5.78a1.64,1.64,0,0,0,.15-.67A15.08,15.08,0,0,0,106.52,168.37Zm4.77-6.9v-9.35h21v9.35c-3.72-3.92-9.84-5.09-10.21-5.16a1.51,1.51,0,0,0-.3,0,1.62,1.62,0,0,0-.31,0C121.13,156.38,115,157.55,111.29,161.47Zm25.8,7.06V177h-1.91V152.12h1.91v15.46c-.61.22-.62.44-.62.67S136.48,168.44,137.09,168.53Zm2.87-7.09v-9.32h21v9.32c-3.73-3.9-9.83-5.06-10.2-5.13a1.51,1.51,0,0,0-.3,0,1.56,1.56,0,0,0-.31,0C149.8,156.38,143.69,157.54,140,161.44Zm22.93,6.14V152.12h1.92V177h-1.92v-8.43c.7-.09.71-.18.71-.28S163.59,167.8,162.89,167.58Zm4.78-6.11v-9.35h21v9.35c-3.71-3.92-9.83-5.09-10.2-5.16a1.51,1.51,0,0,0-.3,0,1.62,1.62,0,0,0-.31,0C177.51,156.38,171.39,157.55,167.67,161.47Zm25.8,9.71V177h-.95V152.12h.95v16.25c0,.7-.08,1.41-.08,2.14C193.39,170.75,193.46,171,193.47,171.18Zm2.87-8.94V152.12h31.53v10.34a19.9,19.9,0,0,0-6.49-5.21,34.73,34.73,0,0,0-9-3.2,5.78,5.78,0,0,0-.68,0,34.73,34.73,0,0,0-9,3.2A20.18,20.18,0,0,0,196.34,162.24ZM230.74,177V152.12h1.91V177Zm1.91,34.4v5.74h-1.91v-5.74Zm-39.18,0v5.74h-.95v-5.74Zm-28.66,0v5.74h-1.92v-5.74Zm-27.72,0v5.74h-1.91v-5.74Zm-29.62,0v5.74h-1v-5.74Zm-38.22,0v5.74H67.34v-5.74Zm172-62.11H58.86l-1.67-1.91H242.88Zm-177.06-43h8.29a1.43,1.43,0,1,0,0-2.86h-.32V97.33c0-10.2,14.18-13.42,15.85-13.76,1.57.32,14.07,3.14,15.68,11.87v8h.29a1.43,1.43,0,0,0,0,2.86h7.67a1.43,1.43,0,0,0,0-2.86h-.32V95.08c0-6.7,9.1-8.94,10.52-9.25,1.42.31,10.51,2.53,10.51,9.25v8.31h.27a1.43,1.43,0,0,0,0,2.86h7.68a1.43,1.43,0,0,0,0-2.86H140V94.48c.53-6.24,9.14-8.35,10.51-8.65,1.39.3,10,2.39,10.51,8.64v8.92h-.66a1.43,1.43,0,0,0,0,2.86H168a1.43,1.43,0,0,0,0-2.86h-.32V95.08c0-6.7,9.1-8.94,10.52-9.25,1.42.31,10.5,2.53,10.5,9.25v8.31h.15a1.43,1.43,0,1,0,0,2.86h7.82a1.43,1.43,0,1,0,0-2.86h-.32V95.45C198,86.73,210.46,83.89,212,83.57c1.68.34,15.85,3.54,15.85,13.76v6.06h-.29a1.43,1.43,0,0,0,0,2.86h7.28a1.43,1.43,0,0,0,0-2.86h-.3V78.54h5.73v65.93h-5.73v-6.68h.32a1.44,1.44,0,0,0,0-2.87h-7.8a1.44,1.44,0,1,0,0,2.87h.79v5.73H196.34v-5.73h.32a1.44,1.44,0,0,0,0-2.87h-7.81a1.44,1.44,0,0,0,0,2.87h-.16v5.73h-21v-5.73H168a1.44,1.44,0,0,0,0-2.87h-7.8a1.44,1.44,0,1,0,0,2.87H161v5.73H140v-5.73h.32a1.44,1.44,0,0,0,0-2.87h-7.8a1.44,1.44,0,1,0,0,2.87h-.16v5.73h-21v-5.73h.32a1.44,1.44,0,1,0,0-2.87h-7.8a1.44,1.44,0,0,0,0,2.87h-.16v5.73H72.12v-5.73h.34a1.44,1.44,0,1,0,0-2.87H64.13a1.44,1.44,0,1,0,0,2.87h.34v6.68H59.7V78.54h4.77v24.85h-.32a1.43,1.43,0,0,0,0,2.86Zm3.19-2.86V78.54h1.91v24.85Zm4.78-14.51V78.54h31.53V88.66a20.33,20.33,0,0,0-6.32-5,34.07,34.07,0,0,0-9-3.19,1.22,1.22,0,0,0-.33,0,1,1,0,0,0-.35,0,34.07,34.07,0,0,0-9,3.19A20,20,0,0,0,72.12,88.88Zm34.4,6V78.54h1v24.85h-1V97.68a1.64,1.64,0,0,0,.15-.67A15.08,15.08,0,0,0,106.52,94.87Zm4.77-7V78.54h21v9.35c-3.72-3.92-9.84-5.09-10.21-5.16a1.51,1.51,0,0,0-.3,0,1.58,1.58,0,0,0-.31,0C121.13,82.8,115,84,111.29,87.89ZM137.09,95v8.36h-1.91V78.54h1.91V94.08c-.61.22-.62.44-.62.67S136.48,94.94,137.09,95ZM140,87.86V78.54h21v9.32c-3.73-3.9-9.83-5.06-10.2-5.13a1.61,1.61,0,0,0-.31,0,1.51,1.51,0,0,0-.3,0C149.8,82.8,143.69,84,140,87.86Zm22.93,6.22V78.54h1.92v24.85h-1.92V95c.7-.09.71-.18.71-.28S163.59,94.3,162.89,94.08Zm4.78-6.19V78.54h21v9.35c-3.71-3.92-9.83-5.09-10.2-5.16a1.61,1.61,0,0,0-.31,0,1.51,1.51,0,0,0-.3,0C177.51,82.8,171.39,84,167.67,87.89Zm25.8,9.79v5.71h-.95V78.54h.95V94.87c0,.7-.08,1.41-.08,2.14C193.39,97.25,193.46,97.48,193.47,97.68Zm2.87-9V78.54h31.53V88.88a20,20,0,0,0-6.49-5.21,34.07,34.07,0,0,0-9-3.19,1.22,1.22,0,0,0-.33,0,1,1,0,0,0-.35,0,34.07,34.07,0,0,0-9,3.19A20.33,20.33,0,0,0,196.34,88.66Zm34.4,14.73V78.54h1.91v24.85Zm1.91,34.4v5.73h-1.91v-5.73Zm-39.18,0v5.73h-.95v-5.73Zm-28.66,0v5.73h-1.92v-5.73Zm-27.72,0v5.73h-1.91v-5.73Zm-29.62,0v5.73h-1v-5.73Zm-38.22,0v5.73H67.34v-5.73Zm172-62.11H58.86l-1.67-1.92H242.88Z"/><path class="cls-1" d="M118.68,94.79h1.21V96a1.44,1.44,0,0,0,2.87,0V94.79H124a1.44,1.44,0,0,0,0-2.87h-1.22V90.7a1.44,1.44,0,0,0-2.87,0v1.22h-1.21a1.44,1.44,0,0,0,0,2.87Z"/><path class="cls-1" d="M85.24,94.79h1.21V96a1.44,1.44,0,0,0,2.87,0V94.79h1.21a1.44,1.44,0,0,0,0-2.87H89.32V90.7a1.44,1.44,0,0,0-2.87,0v1.22H85.24a1.44,1.44,0,1,0,0,2.87Z"/><path class="cls-1" d="M116.55,133h9.56a1.43,1.43,0,0,0,1.43-1.44V104.82a1.43,1.43,0,0,0-1.43-1.43h-9.56a1.43,1.43,0,0,0-1.43,1.43v26.75A1.43,1.43,0,0,0,116.55,133ZM118,106.25h6.69v23.89H118Z"/><path class="cls-1" d="M79.28,133H86a1.44,1.44,0,0,0,1.44-1.44V104.82A1.44,1.44,0,0,0,86,103.39H79.28a1.43,1.43,0,0,0-1.43,1.43v26.75A1.43,1.43,0,0,0,79.28,133Zm1.44-26.76h3.82v23.89H80.72Z"/><path class="cls-1" d="M88.36,104.82v26.75A1.43,1.43,0,0,0,89.79,133h6.69a1.43,1.43,0,0,0,1.44-1.44V104.82a1.43,1.43,0,0,0-1.44-1.43H89.79A1.43,1.43,0,0,0,88.36,104.82Zm2.87,1.43h3.82v23.89H91.23Z"/><path class="cls-1" d="M135.66,132.84a1.43,1.43,0,0,0,1.43-1.43V109a1.43,1.43,0,1,0-2.86,0v22.45A1.43,1.43,0,0,0,135.66,132.84Z"/><path class="cls-1" d="M107,132.84a1.43,1.43,0,0,0,1.44-1.43V109a1.44,1.44,0,1,0-2.87,0v22.45A1.43,1.43,0,0,0,107,132.84Z"/><path class="cls-1" d="M68.77,132.84a1.44,1.44,0,0,0,1.44-1.43V109a1.44,1.44,0,1,0-2.87,0v22.45A1.43,1.43,0,0,0,68.77,132.84Z"/><path class="cls-1" d="M115.41,141.61h12.18a1.44,1.44,0,1,0,0-2.87H115.41a1.44,1.44,0,0,0,0,2.87Z"/><path class="cls-1" d="M77.75,141.61h20.3a1.44,1.44,0,0,0,0-2.87H77.75a1.44,1.44,0,1,0,0,2.87Z"/><path class="cls-1" d="M176,94.79h1.22V96a1.43,1.43,0,0,0,2.86,0V94.79h1.22a1.44,1.44,0,0,0,0-2.87h-1.22V90.7a1.43,1.43,0,0,0-2.86,0v1.22H176a1.44,1.44,0,0,0,0,2.87Z"/><path class="cls-1" d="M147.35,94.79h1.21V96a1.44,1.44,0,0,0,2.87,0V94.79h1.21a1.44,1.44,0,1,0,0-2.87h-1.21V90.7a1.44,1.44,0,0,0-2.87,0v1.22h-1.21a1.44,1.44,0,1,0,0,2.87Z"/><path class="cls-1" d="M209.46,94.79h1.21V96a1.44,1.44,0,0,0,2.87,0V94.79h1.21a1.44,1.44,0,1,0,0-2.87h-1.21V90.7a1.44,1.44,0,0,0-2.87,0v1.22h-1.21a1.44,1.44,0,1,0,0,2.87Z"/><path class="cls-1" d="M173.88,133h9.56a1.43,1.43,0,0,0,1.43-1.44V104.82a1.43,1.43,0,0,0-1.43-1.43h-9.56a1.43,1.43,0,0,0-1.43,1.43v26.75A1.43,1.43,0,0,0,173.88,133Zm1.44-26.76H182v23.89h-6.69Z"/><path class="cls-1" d="M212.58,104.82v26.75A1.44,1.44,0,0,0,214,133h6.69a1.43,1.43,0,0,0,1.43-1.44V104.82a1.43,1.43,0,0,0-1.43-1.43H214A1.44,1.44,0,0,0,212.58,104.82Zm2.87,1.43h3.82v23.89h-3.82Z"/><path class="cls-1" d="M203.51,133h6.68a1.43,1.43,0,0,0,1.44-1.44V104.82a1.43,1.43,0,0,0-1.44-1.43h-6.68a1.43,1.43,0,0,0-1.44,1.43v26.75A1.43,1.43,0,0,0,203.51,133Zm1.43-26.76h3.82v23.89h-3.82Z"/><path class="cls-1" d="M164.33,132.84a1.43,1.43,0,0,0,1.43-1.43V109a1.44,1.44,0,1,0-2.87,0v22.45A1.44,1.44,0,0,0,164.33,132.84Z"/><path class="cls-1" d="M193,132.84a1.43,1.43,0,0,0,1.44-1.43V109a1.44,1.44,0,1,0-2.87,0v22.45A1.43,1.43,0,0,0,193,132.84Z"/><path class="cls-1" d="M231.22,132.84a1.43,1.43,0,0,0,1.43-1.43V109a1.44,1.44,0,1,0-2.87,0v22.45A1.44,1.44,0,0,0,231.22,132.84Z"/><path class="cls-1" d="M172.48,141.61h12.18a1.44,1.44,0,0,0,0-2.87H172.48a1.44,1.44,0,1,0,0,2.87Z"/><path class="cls-1" d="M202,141.61h20.3a1.44,1.44,0,1,0,0-2.87H202a1.44,1.44,0,0,0,0,2.87Z"/></svg>