<svg id="Layer_1" data-name="Layer 1" xmlns="http://www.w3.org/2000/svg" viewBox="0 0 300 300"><defs><style>.cls-1{fill:#666;}</style></defs><title>Artboard 2 copy 3</title><path class="cls-1" d="M273.31,146.36h-1.83V132h1.83a1.61,1.61,0,1,0,0-3.22H26.69a1.61,1.61,0,1,0,0,3.22h1.83v14.35H26.69a1.61,1.61,0,1,0,0,3.22h1.83V231h0v3.23h243V231h0V149.58h1.83a1.61,1.61,0,1,0,0-3.22ZM187.74,132h14.5v14.35h-14.5Zm-9.4,0h6.17v14.35h-6.17Zm-8.91,0h5.68v14.35h-5.68Zm-8.91,0h5.68v14.35h-5.68Zm-8.91,0h5.68v14.35h-5.68Zm-8.9,0h5.68v14.35h-5.68Zm-8.91,0h5.68v14.35H133.8Zm-8.91,0h5.68v14.35h-5.68Zm-9.4,0h6.17v14.35h-6.17Zm-17.73,0h14.5v14.35H97.76Zm-66,0H94.53v14.35H31.75ZM82,149.58v10.57H76.29V149.58Zm-8.91,0v10.57H67.38V149.58Zm-8.91,0v10.57H58.47V149.58Zm-8.91,0v10.57H49.56V149.58Zm-8.9,0v10.57H40.66V149.58Zm-14.59,0h5.68v10.57H31.75Zm41.73,81.29H58.05V205.94a1.61,1.61,0,0,0,1.36-1.59,9.3,9.3,0,0,1,6.35-8.87,9.36,9.36,0,0,1,6.36,8.87,1.61,1.61,0,0,0,1.36,1.59Zm4.79,0H76.7V204.35a1.62,1.62,0,0,0-1.45-1.61,12.66,12.66,0,0,0-9.07-10.52h-.1l-.16,0h-.31a.86.86,0,0,0-.17,0h-.1a12.67,12.67,0,0,0-9.06,10.52,1.62,1.62,0,0,0-1.45,1.61v26.52H53.26v-43h25Zm0-46.26h-25v-.35c0-9.45,10.13-13.94,12.51-14.87,2.38.93,12.5,5.42,12.5,14.87Zm12.65,46.26H81.5v-43h1.26a1.62,1.62,0,0,0,0-3.23H81.5v-.35c0-13-14.61-17.92-15.24-18.12h0a1.83,1.83,0,0,0-.25-.06h-.39a.7.7,0,0,0-.14,0l-.18,0h0c-.63.2-15.24,5.11-15.24,18.12v.35H48.77a1.62,1.62,0,0,0,0,3.23H50v43H31.75V163.38H90.92Zm0-70.72H85.19V149.58h5.73Zm25,70.72H94.14V149.58h21.74Zm59.6,0h-51v-43h2.33a1.61,1.61,0,0,0,1.61-1.61c0-21.4,18.39-28,21.53-29,3,1,21.55,7.79,21.55,29a1.61,1.61,0,0,0,1.61,1.61h2.33Zm5.42,0h-2.19V186.23a1.63,1.63,0,0,0-1.62-1.62h-2.36c-1-24.08-24.07-30.58-24.31-30.64l-.1,0-.16,0h-.31l-.18,0-.09,0c-.24.06-23.32,6.56-24.31,30.64h-2.36a1.63,1.63,0,0,0-1.62,1.62v44.64H119.1V149.58h61.8Zm25,0H184.12V149.58h21.74Zm36.09,0H226.52V205.94a1.61,1.61,0,0,0,1.36-1.59,9.3,9.3,0,0,1,6.35-8.87,9.36,9.36,0,0,1,6.36,8.87,1.61,1.61,0,0,0,1.36,1.59Zm4.79,0h-1.57V204.35a1.62,1.62,0,0,0-1.45-1.61,12.66,12.66,0,0,0-9.07-10.52h-.1l-.16,0h-.31a1,1,0,0,0-.17,0h-.1a12.69,12.69,0,0,0-9.07,10.52,1.62,1.62,0,0,0-1.44,1.61v26.52h-1.57v-43h25Zm0-46.26h-25v-.35c0-9.45,10.12-13.94,12.5-14.87,2.38.93,12.51,5.42,12.51,14.87Zm21.51,46.26H250v-43h1.26a1.62,1.62,0,0,0,0-3.23H250v-.35c0-13-14.61-17.92-15.24-18.12h0a2.27,2.27,0,0,0-.25-.06h-.39l-.14,0-.18,0h0c-.62.2-15.23,5.11-15.23,18.12v.35h-1.26a1.62,1.62,0,0,0,0,3.23h1.26v43h-9.42V163.38h59.17Zm-59.17-70.72V149.58h5.72v10.57Zm8.95,0V149.58h5.68v10.57Zm8.91,0V149.58h5.68v10.57Zm8.91,0V149.58h5.68v10.57Zm8.9,0V149.58h5.69v10.57Zm8.91,0V149.58h5.68v10.57Zm14.59,0h-5.68V149.58h5.68Zm0-13.79H205.47V132h62.78Z"/><path class="cls-1" d="M155.87,203.8h.33v.32a1.61,1.61,0,1,0,3.22,0v-.32h.33a1.62,1.62,0,0,0,0-3.23h-.33v-.32a1.61,1.61,0,1,0-3.22,0v.32h-.33a1.62,1.62,0,0,0,0,3.23Z"/><path class="cls-1" d="M92.53,106.73h3.23v17.46H26.69a1.62,1.62,0,1,0,0,3.23H273.31a1.62,1.62,0,1,0,0-3.23H204.24V106.73h3.23a1.62,1.62,0,0,0,0-3.23h-3.23V85.62a1.49,1.49,0,0,0,0-.21,1.11,1.11,0,0,0,0-.25.59.59,0,0,0,0-.13,1.42,1.42,0,0,0-.17-.42l-.09-.14a.67.67,0,0,0-.09-.14l-7.24-10.9V67.35a1.61,1.61,0,1,0-3.22,0v6.08L186,84.51h0a0,0,0,0,0,0,0,1.26,1.26,0,0,0-.16.33l0,.1a1.5,1.5,0,0,0-.06.29s0,.07,0,.1V96.11H114.26V85.36s0-.06,0-.1a1,1,0,0,0,0-.29l0-.1a1.26,1.26,0,0,0-.16-.33,0,0,0,0,1,0,0h0l-7.36-11.08V67.35a1.61,1.61,0,1,0-3.22,0v6.08L96,84.51h0a0,0,0,0,0,0,0,1.26,1.26,0,0,0-.16.33l0,.1a1.5,1.5,0,0,0-.06.29.31.31,0,0,1,0,.1V103.5H92.53a1.62,1.62,0,0,0,0,3.23ZM99,124.19V106.73h12v17.46ZM99,87h12V103.5H99Zm51,19.71h35.74v17.46H114.26V106.73Zm51-3.23H189V87h12Zm-12,20.69V106.73h12v17.46Zm6-47.36,4.63,7h-9.26ZM150,99.34h35.74v4.16H114.26V99.34ZM105,76.83l4.63,7h-9.26Z"/><path class="cls-1" d="M97.37,156.4h15.28a1.62,1.62,0,0,0,0-3.23H97.37a1.62,1.62,0,0,0,0,3.23Z"/><path class="cls-1" d="M97.37,163.38h15.28a1.62,1.62,0,0,0,0-3.23H97.37a1.62,1.62,0,0,0,0,3.23Z"/><path class="cls-1" d="M202.63,153.17H187.35a1.62,1.62,0,0,0,0,3.23h15.28a1.62,1.62,0,0,0,0-3.23Z"/><path class="cls-1" d="M202.63,160.15H187.35a1.62,1.62,0,0,0,0,3.23h15.28a1.62,1.62,0,0,0,0-3.23Z"/><path class="cls-1" d="M105,89.54a1.61,1.61,0,0,0-1.61,1.61v6.57a1.61,1.61,0,1,0,3.22,0V91.15A1.61,1.61,0,0,0,105,89.54Z"/><path class="cls-1" d="M195,99.34a1.62,1.62,0,0,0,1.61-1.62V91.15a1.61,1.61,0,1,0-3.22,0v6.57A1.62,1.62,0,0,0,195,99.34Z"/></svg>